<mxfile host="Electron" modified="2024-04-20T23:46:26.499Z" agent="Mozilla/5.0 (Macintosh; Intel Mac OS X 10_15_7) AppleWebKit/537.36 (KHTML, like Gecko) draw.io/24.2.5 Chrome/120.0.6099.109 Electron/28.1.0 Safari/537.36" etag="MyKkxUMazd6W-YiDwqk-" version="24.2.5" type="device" pages="4">
  <diagram name="Page-1" id="i2pQ6GXTeyNQiyUow3Wy">
    <mxGraphModel dx="1914" dy="1351" grid="0" gridSize="10" guides="1" tooltips="1" connect="1" arrows="1" fold="1" page="1" pageScale="1" pageWidth="850" pageHeight="1100" math="1" shadow="0">
      <root>
        <mxCell id="0" />
        <mxCell id="1" parent="0" />
        <mxCell id="p_UyuPN5yLSSk1cJverN-111" value="" style="group" vertex="1" connectable="0" parent="1">
          <mxGeometry x="32" y="616" width="803" height="415" as="geometry" />
        </mxCell>
        <mxCell id="p_UyuPN5yLSSk1cJverN-56" value="" style="ellipse;whiteSpace=wrap;html=1;aspect=fixed;" vertex="1" parent="p_UyuPN5yLSSk1cJverN-111">
          <mxGeometry x="143.5" y="142" width="61" height="61" as="geometry" />
        </mxCell>
        <mxCell id="p_UyuPN5yLSSk1cJverN-57" value="&lt;font style=&quot;font-size: 14px;&quot;&gt;0&lt;/font&gt;" style="ellipse;whiteSpace=wrap;html=1;aspect=fixed;" vertex="1" parent="p_UyuPN5yLSSk1cJverN-111">
          <mxGeometry x="143.5" y="212" width="61" height="61" as="geometry" />
        </mxCell>
        <mxCell id="p_UyuPN5yLSSk1cJverN-58" value="7keV" style="ellipse;whiteSpace=wrap;html=1;aspect=fixed;" vertex="1" parent="p_UyuPN5yLSSk1cJverN-111">
          <mxGeometry x="302" y="175" width="63" height="63" as="geometry" />
        </mxCell>
        <mxCell id="p_UyuPN5yLSSk1cJverN-59" value="8keV" style="ellipse;whiteSpace=wrap;html=1;aspect=fixed;" vertex="1" parent="p_UyuPN5yLSSk1cJverN-111">
          <mxGeometry x="305" y="253" width="57" height="57" as="geometry" />
        </mxCell>
        <mxCell id="p_UyuPN5yLSSk1cJverN-60" value="6keV" style="ellipse;whiteSpace=wrap;html=1;aspect=fixed;" vertex="1" parent="p_UyuPN5yLSSk1cJverN-111">
          <mxGeometry x="301" y="99" width="64" height="64" as="geometry" />
        </mxCell>
        <mxCell id="p_UyuPN5yLSSk1cJverN-61" value="" style="endArrow=classic;html=1;rounded=0;exitX=1;exitY=0.5;exitDx=0;exitDy=0;" edge="1" parent="p_UyuPN5yLSSk1cJverN-111" source="p_UyuPN5yLSSk1cJverN-56">
          <mxGeometry width="50" height="50" relative="1" as="geometry">
            <mxPoint x="210" y="166" as="sourcePoint" />
            <mxPoint x="300" y="130" as="targetPoint" />
          </mxGeometry>
        </mxCell>
        <mxCell id="p_UyuPN5yLSSk1cJverN-62" value="" style="endArrow=classic;html=1;rounded=0;entryX=0;entryY=0.5;entryDx=0;entryDy=0;exitX=1;exitY=0.5;exitDx=0;exitDy=0;" edge="1" parent="p_UyuPN5yLSSk1cJverN-111" source="p_UyuPN5yLSSk1cJverN-56" target="p_UyuPN5yLSSk1cJverN-58">
          <mxGeometry width="50" height="50" relative="1" as="geometry">
            <mxPoint x="220" y="176" as="sourcePoint" />
            <mxPoint x="310" y="140" as="targetPoint" />
          </mxGeometry>
        </mxCell>
        <mxCell id="p_UyuPN5yLSSk1cJverN-63" value="" style="endArrow=classic;html=1;rounded=0;entryX=0;entryY=0.5;entryDx=0;entryDy=0;exitX=1;exitY=0.5;exitDx=0;exitDy=0;" edge="1" parent="p_UyuPN5yLSSk1cJverN-111" source="p_UyuPN5yLSSk1cJverN-56" target="p_UyuPN5yLSSk1cJverN-59">
          <mxGeometry width="50" height="50" relative="1" as="geometry">
            <mxPoint x="224" y="185" as="sourcePoint" />
            <mxPoint x="312" y="209" as="targetPoint" />
          </mxGeometry>
        </mxCell>
        <mxCell id="p_UyuPN5yLSSk1cJverN-64" value="0.25m" style="ellipse;whiteSpace=wrap;html=1;aspect=fixed;" vertex="1" parent="p_UyuPN5yLSSk1cJverN-111">
          <mxGeometry x="442" y="177" width="63" height="63" as="geometry" />
        </mxCell>
        <mxCell id="p_UyuPN5yLSSk1cJverN-65" value="0.35m" style="ellipse;whiteSpace=wrap;html=1;aspect=fixed;" vertex="1" parent="p_UyuPN5yLSSk1cJverN-111">
          <mxGeometry x="445" y="255" width="57" height="57" as="geometry" />
        </mxCell>
        <mxCell id="p_UyuPN5yLSSk1cJverN-66" value="0.15m" style="ellipse;whiteSpace=wrap;html=1;aspect=fixed;" vertex="1" parent="p_UyuPN5yLSSk1cJverN-111">
          <mxGeometry x="441" y="101" width="64" height="64" as="geometry" />
        </mxCell>
        <mxCell id="p_UyuPN5yLSSk1cJverN-67" value="" style="endArrow=classic;html=1;rounded=0;exitX=1;exitY=0.5;exitDx=0;exitDy=0;entryX=0;entryY=0.5;entryDx=0;entryDy=0;" edge="1" parent="p_UyuPN5yLSSk1cJverN-111" source="p_UyuPN5yLSSk1cJverN-60" target="p_UyuPN5yLSSk1cJverN-66">
          <mxGeometry width="50" height="50" relative="1" as="geometry">
            <mxPoint x="380" y="122" as="sourcePoint" />
            <mxPoint x="430" y="72" as="targetPoint" />
          </mxGeometry>
        </mxCell>
        <mxCell id="p_UyuPN5yLSSk1cJverN-68" value="" style="endArrow=classic;html=1;rounded=0;exitX=1;exitY=0.5;exitDx=0;exitDy=0;entryX=0;entryY=0.5;entryDx=0;entryDy=0;" edge="1" parent="p_UyuPN5yLSSk1cJverN-111" source="p_UyuPN5yLSSk1cJverN-60" target="p_UyuPN5yLSSk1cJverN-64">
          <mxGeometry width="50" height="50" relative="1" as="geometry">
            <mxPoint x="375" y="141" as="sourcePoint" />
            <mxPoint x="451" y="143" as="targetPoint" />
          </mxGeometry>
        </mxCell>
        <mxCell id="p_UyuPN5yLSSk1cJverN-69" value="" style="endArrow=classic;html=1;rounded=0;exitX=1;exitY=0.5;exitDx=0;exitDy=0;entryX=0;entryY=0.5;entryDx=0;entryDy=0;" edge="1" parent="p_UyuPN5yLSSk1cJverN-111" source="p_UyuPN5yLSSk1cJverN-60" target="p_UyuPN5yLSSk1cJverN-65">
          <mxGeometry width="50" height="50" relative="1" as="geometry">
            <mxPoint x="362" y="138" as="sourcePoint" />
            <mxPoint x="439" y="216" as="targetPoint" />
          </mxGeometry>
        </mxCell>
        <mxCell id="p_UyuPN5yLSSk1cJverN-70" value="" style="endArrow=classic;html=1;rounded=0;entryX=0;entryY=0.5;entryDx=0;entryDy=0;exitX=1;exitY=0.5;exitDx=0;exitDy=0;" edge="1" parent="p_UyuPN5yLSSk1cJverN-111" source="p_UyuPN5yLSSk1cJverN-58" target="p_UyuPN5yLSSk1cJverN-66">
          <mxGeometry width="50" height="50" relative="1" as="geometry">
            <mxPoint x="366" y="203" as="sourcePoint" />
            <mxPoint x="451" y="143" as="targetPoint" />
          </mxGeometry>
        </mxCell>
        <mxCell id="p_UyuPN5yLSSk1cJverN-71" value="" style="endArrow=classic;html=1;rounded=0;exitX=1;exitY=0.5;exitDx=0;exitDy=0;entryX=0;entryY=0.5;entryDx=0;entryDy=0;" edge="1" parent="p_UyuPN5yLSSk1cJverN-111" source="p_UyuPN5yLSSk1cJverN-58" target="p_UyuPN5yLSSk1cJverN-64">
          <mxGeometry width="50" height="50" relative="1" as="geometry">
            <mxPoint x="375" y="141" as="sourcePoint" />
            <mxPoint x="452" y="219" as="targetPoint" />
          </mxGeometry>
        </mxCell>
        <mxCell id="p_UyuPN5yLSSk1cJverN-72" value="" style="endArrow=classic;html=1;rounded=0;exitX=1;exitY=0.5;exitDx=0;exitDy=0;entryX=0;entryY=0.5;entryDx=0;entryDy=0;" edge="1" parent="p_UyuPN5yLSSk1cJverN-111" source="p_UyuPN5yLSSk1cJverN-58" target="p_UyuPN5yLSSk1cJverN-65">
          <mxGeometry width="50" height="50" relative="1" as="geometry">
            <mxPoint x="375" y="141" as="sourcePoint" />
            <mxPoint x="455" y="294" as="targetPoint" />
          </mxGeometry>
        </mxCell>
        <mxCell id="p_UyuPN5yLSSk1cJverN-73" value="" style="endArrow=classic;html=1;rounded=0;entryX=0;entryY=0.5;entryDx=0;entryDy=0;exitX=1;exitY=0.5;exitDx=0;exitDy=0;" edge="1" parent="p_UyuPN5yLSSk1cJverN-111" source="p_UyuPN5yLSSk1cJverN-59" target="p_UyuPN5yLSSk1cJverN-66">
          <mxGeometry width="50" height="50" relative="1" as="geometry">
            <mxPoint x="375" y="217" as="sourcePoint" />
            <mxPoint x="461" y="153" as="targetPoint" />
          </mxGeometry>
        </mxCell>
        <mxCell id="p_UyuPN5yLSSk1cJverN-74" value="" style="endArrow=classic;html=1;rounded=0;exitX=1;exitY=0.5;exitDx=0;exitDy=0;entryX=0;entryY=0.5;entryDx=0;entryDy=0;" edge="1" parent="p_UyuPN5yLSSk1cJverN-111" source="p_UyuPN5yLSSk1cJverN-59" target="p_UyuPN5yLSSk1cJverN-64">
          <mxGeometry width="50" height="50" relative="1" as="geometry">
            <mxPoint x="375" y="217" as="sourcePoint" />
            <mxPoint x="462" y="229" as="targetPoint" />
          </mxGeometry>
        </mxCell>
        <mxCell id="p_UyuPN5yLSSk1cJverN-75" value="" style="endArrow=classic;html=1;rounded=0;exitX=1;exitY=0.5;exitDx=0;exitDy=0;entryX=0;entryY=0.5;entryDx=0;entryDy=0;" edge="1" parent="p_UyuPN5yLSSk1cJverN-111" source="p_UyuPN5yLSSk1cJverN-59" target="p_UyuPN5yLSSk1cJverN-65">
          <mxGeometry width="50" height="50" relative="1" as="geometry">
            <mxPoint x="375" y="217" as="sourcePoint" />
            <mxPoint x="465" y="304" as="targetPoint" />
          </mxGeometry>
        </mxCell>
        <mxCell id="p_UyuPN5yLSSk1cJverN-76" value="" style="ellipse;whiteSpace=wrap;html=1;aspect=fixed;" vertex="1" parent="p_UyuPN5yLSSk1cJverN-111">
          <mxGeometry x="581.5" y="178" width="61" height="61" as="geometry" />
        </mxCell>
        <mxCell id="p_UyuPN5yLSSk1cJverN-77" value="" style="endArrow=classic;html=1;rounded=0;entryX=0;entryY=0.5;entryDx=0;entryDy=0;exitX=1;exitY=0.5;exitDx=0;exitDy=0;" edge="1" parent="p_UyuPN5yLSSk1cJverN-111" source="p_UyuPN5yLSSk1cJverN-66" target="p_UyuPN5yLSSk1cJverN-76">
          <mxGeometry width="50" height="50" relative="1" as="geometry">
            <mxPoint x="515" y="143" as="sourcePoint" />
            <mxPoint x="591" y="184" as="targetPoint" />
          </mxGeometry>
        </mxCell>
        <mxCell id="p_UyuPN5yLSSk1cJverN-78" value="" style="endArrow=classic;html=1;rounded=0;entryX=0;entryY=0.5;entryDx=0;entryDy=0;exitX=1;exitY=0.5;exitDx=0;exitDy=0;" edge="1" parent="p_UyuPN5yLSSk1cJverN-111" source="p_UyuPN5yLSSk1cJverN-64" target="p_UyuPN5yLSSk1cJverN-76">
          <mxGeometry width="50" height="50" relative="1" as="geometry">
            <mxPoint x="515" y="143" as="sourcePoint" />
            <mxPoint x="591" y="254" as="targetPoint" />
          </mxGeometry>
        </mxCell>
        <mxCell id="p_UyuPN5yLSSk1cJverN-79" value="" style="endArrow=classic;html=1;rounded=0;entryX=0;entryY=0.5;entryDx=0;entryDy=0;exitX=1;exitY=0.5;exitDx=0;exitDy=0;" edge="1" parent="p_UyuPN5yLSSk1cJverN-111" source="p_UyuPN5yLSSk1cJverN-65" target="p_UyuPN5yLSSk1cJverN-76">
          <mxGeometry width="50" height="50" relative="1" as="geometry">
            <mxPoint x="515" y="219" as="sourcePoint" />
            <mxPoint x="591" y="254" as="targetPoint" />
          </mxGeometry>
        </mxCell>
        <mxCell id="p_UyuPN5yLSSk1cJverN-80" value="Peaks Classification" style="text;html=1;align=center;verticalAlign=middle;resizable=0;points=[];autosize=1;strokeColor=none;fillColor=none;" vertex="1" parent="p_UyuPN5yLSSk1cJverN-111">
          <mxGeometry x="112" y="61" width="125" height="26" as="geometry" />
        </mxCell>
        <mxCell id="p_UyuPN5yLSSk1cJverN-81" value="Photon Energy" style="text;html=1;align=center;verticalAlign=middle;resizable=0;points=[];autosize=1;strokeColor=none;fillColor=none;" vertex="1" parent="p_UyuPN5yLSSk1cJverN-111">
          <mxGeometry x="282" y="61" width="97" height="26" as="geometry" />
        </mxCell>
        <mxCell id="p_UyuPN5yLSSk1cJverN-82" value="Camera Length" style="text;html=1;align=center;verticalAlign=middle;resizable=0;points=[];autosize=1;strokeColor=none;fillColor=none;" vertex="1" parent="p_UyuPN5yLSSk1cJverN-111">
          <mxGeometry x="423" y="61" width="101" height="26" as="geometry" />
        </mxCell>
        <mxCell id="p_UyuPN5yLSSk1cJverN-83" value="&lt;font style=&quot;font-size: 14px;&quot;&gt;1&lt;/font&gt;" style="text;html=1;align=center;verticalAlign=middle;resizable=0;points=[];autosize=1;strokeColor=none;fillColor=none;" vertex="1" parent="p_UyuPN5yLSSk1cJverN-111">
          <mxGeometry x="161.5" y="158.5" width="26" height="29" as="geometry" />
        </mxCell>
        <mxCell id="p_UyuPN5yLSSk1cJverN-84" value="Deep Learning Output" style="text;html=1;align=center;verticalAlign=middle;resizable=0;points=[];autosize=1;strokeColor=none;fillColor=none;" vertex="1" parent="p_UyuPN5yLSSk1cJverN-111">
          <mxGeometry x="541" y="61" width="136" height="26" as="geometry" />
        </mxCell>
        <mxCell id="p_UyuPN5yLSSk1cJverN-85" value="" style="shape=curlyBracket;whiteSpace=wrap;html=1;rounded=1;labelPosition=left;verticalLabelPosition=middle;align=right;verticalAlign=middle;" vertex="1" parent="p_UyuPN5yLSSk1cJverN-111">
          <mxGeometry x="651" y="165.5" width="20" height="87.5" as="geometry" />
        </mxCell>
        <mxCell id="p_UyuPN5yLSSk1cJverN-86" value="Predictions:" style="text;html=1;align=center;verticalAlign=middle;resizable=0;points=[];autosize=1;strokeColor=none;fillColor=none;" vertex="1" parent="p_UyuPN5yLSSk1cJverN-111">
          <mxGeometry x="696.5" y="61" width="81" height="26" as="geometry" />
        </mxCell>
        <mxCell id="p_UyuPN5yLSSk1cJverN-87" value="peak: 1&lt;div&gt;&lt;br&gt;&lt;/div&gt;&lt;div&gt;photon_energy: 6keV&lt;/div&gt;&lt;div&gt;&lt;br&gt;&lt;/div&gt;&lt;div&gt;clen: 0.15m&lt;/div&gt;" style="text;html=1;align=left;verticalAlign=middle;resizable=0;points=[];autosize=1;strokeColor=none;fillColor=none;" vertex="1" parent="p_UyuPN5yLSSk1cJverN-111">
          <mxGeometry x="671" y="165.5" width="132" height="84" as="geometry" />
        </mxCell>
        <mxCell id="p_UyuPN5yLSSk1cJverN-88" value="&lt;span style=&quot;color: rgb(0, 0, 0); font-family: Helvetica; font-style: normal; font-variant-ligatures: normal; font-variant-caps: normal; font-weight: 700; letter-spacing: normal; orphans: 2; text-align: center; text-indent: 0px; text-transform: none; widows: 2; word-spacing: 0px; -webkit-text-stroke-width: 0px; white-space: nowrap; background-color: rgb(251, 251, 251); text-decoration-thickness: initial; text-decoration-style: initial; text-decoration-color: initial; float: none; display: inline !important;&quot;&gt;&lt;font style=&quot;font-size: 14px;&quot;&gt;Model Pipeline&lt;/font&gt;&lt;/span&gt;" style="text;whiteSpace=wrap;html=1;" vertex="1" parent="p_UyuPN5yLSSk1cJverN-111">
          <mxGeometry x="326" y="6" width="104" height="27" as="geometry" />
        </mxCell>
        <mxCell id="p_UyuPN5yLSSk1cJverN-89" value="Example:" style="text;html=1;align=center;verticalAlign=middle;resizable=0;points=[];autosize=1;strokeColor=none;fillColor=none;" vertex="1" parent="p_UyuPN5yLSSk1cJverN-111">
          <mxGeometry x="653" y="142" width="68" height="26" as="geometry" />
        </mxCell>
        <mxCell id="p_UyuPN5yLSSk1cJverN-90" value="" style="endArrow=classic;html=1;rounded=0;exitX=0.974;exitY=0.596;exitDx=0;exitDy=0;exitPerimeter=0;" edge="1" parent="p_UyuPN5yLSSk1cJverN-111" source="p_UyuPN5yLSSk1cJverN-57" target="p_UyuPN5yLSSk1cJverN-91">
          <mxGeometry width="50" height="50" relative="1" as="geometry">
            <mxPoint x="204.5" y="247" as="sourcePoint" />
            <mxPoint x="301" y="341" as="targetPoint" />
          </mxGeometry>
        </mxCell>
        <mxCell id="p_UyuPN5yLSSk1cJverN-91" value="Terminated" style="text;html=1;align=center;verticalAlign=middle;resizable=0;points=[];autosize=1;strokeColor=none;fillColor=none;" vertex="1" parent="p_UyuPN5yLSSk1cJverN-111">
          <mxGeometry x="292" y="331" width="77" height="26" as="geometry" />
        </mxCell>
        <mxCell id="p_UyuPN5yLSSk1cJverN-92" value="" style="ellipse;whiteSpace=wrap;html=1;aspect=fixed;" vertex="1" parent="p_UyuPN5yLSSk1cJverN-111">
          <mxGeometry x="12" y="109" width="63" height="63" as="geometry" />
        </mxCell>
        <mxCell id="p_UyuPN5yLSSk1cJverN-93" value="" style="ellipse;whiteSpace=wrap;html=1;aspect=fixed;" vertex="1" parent="p_UyuPN5yLSSk1cJverN-111">
          <mxGeometry x="11" y="33" width="64" height="64" as="geometry" />
        </mxCell>
        <mxCell id="p_UyuPN5yLSSk1cJverN-94" value="" style="ellipse;whiteSpace=wrap;html=1;aspect=fixed;" vertex="1" parent="p_UyuPN5yLSSk1cJverN-111">
          <mxGeometry x="11" y="215" width="63" height="63" as="geometry" />
        </mxCell>
        <mxCell id="p_UyuPN5yLSSk1cJverN-95" value="" style="ellipse;whiteSpace=wrap;html=1;aspect=fixed;" vertex="1" parent="p_UyuPN5yLSSk1cJverN-111">
          <mxGeometry x="14" y="293" width="57" height="57" as="geometry" />
        </mxCell>
        <mxCell id="p_UyuPN5yLSSk1cJverN-96" value="&lt;font style=&quot;font-size: 25px;&quot;&gt;...&lt;/font&gt;" style="text;html=1;align=center;verticalAlign=middle;resizable=0;points=[];autosize=1;strokeColor=none;fillColor=none;rotation=90;" vertex="1" parent="p_UyuPN5yLSSk1cJverN-111">
          <mxGeometry x="32" y="172" width="39" height="42" as="geometry" />
        </mxCell>
        <mxCell id="p_UyuPN5yLSSk1cJverN-97" value="" style="endArrow=classic;html=1;rounded=0;exitX=0.99;exitY=0.551;exitDx=0;exitDy=0;entryX=0;entryY=0.5;entryDx=0;entryDy=0;exitPerimeter=0;" edge="1" parent="p_UyuPN5yLSSk1cJverN-111" source="p_UyuPN5yLSSk1cJverN-93" target="p_UyuPN5yLSSk1cJverN-56">
          <mxGeometry width="50" height="50" relative="1" as="geometry">
            <mxPoint x="77" y="67" as="sourcePoint" />
            <mxPoint x="172" y="24" as="targetPoint" />
          </mxGeometry>
        </mxCell>
        <mxCell id="p_UyuPN5yLSSk1cJverN-98" value="" style="endArrow=classic;html=1;rounded=0;entryX=0.001;entryY=0.458;entryDx=0;entryDy=0;exitX=1;exitY=0.5;exitDx=0;exitDy=0;entryPerimeter=0;" edge="1" parent="p_UyuPN5yLSSk1cJverN-111">
          <mxGeometry width="50" height="50" relative="1" as="geometry">
            <mxPoint x="75.00000000000011" y="68.30999999999995" as="sourcePoint" />
            <mxPoint x="143.56100000000004" y="243.24800000000005" as="targetPoint" />
          </mxGeometry>
        </mxCell>
        <mxCell id="p_UyuPN5yLSSk1cJverN-99" value="" style="endArrow=classic;html=1;rounded=0;exitX=1;exitY=0.5;exitDx=0;exitDy=0;entryX=0.014;entryY=0.553;entryDx=0;entryDy=0;entryPerimeter=0;" edge="1" parent="p_UyuPN5yLSSk1cJverN-111" source="p_UyuPN5yLSSk1cJverN-92" target="p_UyuPN5yLSSk1cJverN-57">
          <mxGeometry width="50" height="50" relative="1" as="geometry">
            <mxPoint x="87" y="77" as="sourcePoint" />
            <mxPoint x="131" y="263" as="targetPoint" />
          </mxGeometry>
        </mxCell>
        <mxCell id="p_UyuPN5yLSSk1cJverN-100" value="" style="endArrow=classic;html=1;rounded=0;exitX=1;exitY=0.5;exitDx=0;exitDy=0;entryX=0;entryY=0.5;entryDx=0;entryDy=0;" edge="1" parent="p_UyuPN5yLSSk1cJverN-111" source="p_UyuPN5yLSSk1cJverN-92" target="p_UyuPN5yLSSk1cJverN-56">
          <mxGeometry width="50" height="50" relative="1" as="geometry">
            <mxPoint x="85" y="150" as="sourcePoint" />
            <mxPoint x="153" y="253" as="targetPoint" />
          </mxGeometry>
        </mxCell>
        <mxCell id="p_UyuPN5yLSSk1cJverN-101" value="" style="endArrow=classic;html=1;rounded=0;exitX=1;exitY=0.5;exitDx=0;exitDy=0;entryX=0;entryY=0.5;entryDx=0;entryDy=0;" edge="1" parent="p_UyuPN5yLSSk1cJverN-111" source="p_UyuPN5yLSSk1cJverN-94" target="p_UyuPN5yLSSk1cJverN-56">
          <mxGeometry width="50" height="50" relative="1" as="geometry">
            <mxPoint x="75" y="250" as="sourcePoint" />
            <mxPoint x="143" y="353" as="targetPoint" />
          </mxGeometry>
        </mxCell>
        <mxCell id="p_UyuPN5yLSSk1cJverN-102" value="" style="endArrow=classic;html=1;rounded=0;exitX=1;exitY=0.5;exitDx=0;exitDy=0;" edge="1" parent="p_UyuPN5yLSSk1cJverN-111" source="p_UyuPN5yLSSk1cJverN-94" target="p_UyuPN5yLSSk1cJverN-57">
          <mxGeometry width="50" height="50" relative="1" as="geometry">
            <mxPoint x="75" y="250" as="sourcePoint" />
            <mxPoint x="143" y="283" as="targetPoint" />
          </mxGeometry>
        </mxCell>
        <mxCell id="p_UyuPN5yLSSk1cJverN-103" value="" style="endArrow=classic;html=1;rounded=0;exitX=1;exitY=0.5;exitDx=0;exitDy=0;entryX=0;entryY=0.5;entryDx=0;entryDy=0;" edge="1" parent="p_UyuPN5yLSSk1cJverN-111" target="p_UyuPN5yLSSk1cJverN-57">
          <mxGeometry width="50" height="50" relative="1" as="geometry">
            <mxPoint x="71" y="324" as="sourcePoint" />
            <mxPoint x="140" y="250" as="targetPoint" />
          </mxGeometry>
        </mxCell>
        <mxCell id="p_UyuPN5yLSSk1cJverN-104" value="" style="endArrow=classic;html=1;rounded=0;exitX=1;exitY=0.5;exitDx=0;exitDy=0;entryX=0.021;entryY=0.451;entryDx=0;entryDy=0;entryPerimeter=0;" edge="1" parent="p_UyuPN5yLSSk1cJverN-111" target="p_UyuPN5yLSSk1cJverN-56">
          <mxGeometry width="50" height="50" relative="1" as="geometry">
            <mxPoint x="71" y="324" as="sourcePoint" />
            <mxPoint x="140" y="320" as="targetPoint" />
          </mxGeometry>
        </mxCell>
        <mxCell id="p_UyuPN5yLSSk1cJverN-105" value="&lt;div style=&quot;text-align: center;&quot;&gt;&lt;span style=&quot;text-wrap: nowrap;&quot;&gt;\[ \mathbb{R}^{4,533,648}\]&lt;/span&gt;&lt;br&gt;&lt;/div&gt;" style="text;whiteSpace=wrap;html=1;" vertex="1" parent="p_UyuPN5yLSSk1cJverN-111">
          <mxGeometry x="26" y="361" width="42.5" height="54" as="geometry" />
        </mxCell>
        <mxCell id="p_UyuPN5yLSSk1cJverN-106" value="&lt;span style=&quot;color: rgb(0, 0, 0); font-family: Helvetica; font-size: 12px; font-style: normal; font-variant-ligatures: normal; font-variant-caps: normal; font-weight: 400; letter-spacing: normal; orphans: 2; text-align: center; text-indent: 0px; text-transform: none; widows: 2; word-spacing: 0px; -webkit-text-stroke-width: 0px; white-space: nowrap; background-color: rgb(251, 251, 251); text-decoration-thickness: initial; text-decoration-style: initial; text-decoration-color: initial; display: inline !important; float: none;&quot;&gt;\[ \mathbb{R}^{2}\]&lt;/span&gt;" style="text;whiteSpace=wrap;html=1;" vertex="1" parent="p_UyuPN5yLSSk1cJverN-111">
          <mxGeometry x="150.56" y="361" width="19" height="47" as="geometry" />
        </mxCell>
        <mxCell id="p_UyuPN5yLSSk1cJverN-107" value="&lt;span style=&quot;color: rgb(0, 0, 0); font-family: Helvetica; font-size: 12px; font-style: normal; font-variant-ligatures: normal; font-variant-caps: normal; font-weight: 400; letter-spacing: normal; orphans: 2; text-align: center; text-indent: 0px; text-transform: none; widows: 2; word-spacing: 0px; -webkit-text-stroke-width: 0px; white-space: nowrap; background-color: rgb(251, 251, 251); text-decoration-thickness: initial; text-decoration-style: initial; text-decoration-color: initial; display: inline !important; float: none;&quot;&gt;\[ \mathbb{R}^{3}\]&lt;/span&gt;" style="text;whiteSpace=wrap;html=1;" vertex="1" parent="p_UyuPN5yLSSk1cJverN-111">
          <mxGeometry x="319" y="361" width="35" height="36" as="geometry" />
        </mxCell>
        <mxCell id="p_UyuPN5yLSSk1cJverN-108" value="&lt;span style=&quot;color: rgb(0, 0, 0); font-family: Helvetica; font-size: 12px; font-style: normal; font-variant-ligatures: normal; font-variant-caps: normal; font-weight: 400; letter-spacing: normal; orphans: 2; text-align: center; text-indent: 0px; text-transform: none; widows: 2; word-spacing: 0px; -webkit-text-stroke-width: 0px; white-space: nowrap; background-color: rgb(251, 251, 251); text-decoration-thickness: initial; text-decoration-style: initial; text-decoration-color: initial; display: inline !important; float: none;&quot;&gt;\[ \mathbb{R}^{3}\]&lt;/span&gt;" style="text;whiteSpace=wrap;html=1;" vertex="1" parent="p_UyuPN5yLSSk1cJverN-111">
          <mxGeometry x="459" y="357" width="35" height="36" as="geometry" />
        </mxCell>
        <mxCell id="p_UyuPN5yLSSk1cJverN-109" value="&lt;span style=&quot;color: rgb(0, 0, 0); font-family: Helvetica; font-size: 12px; font-style: normal; font-variant-ligatures: normal; font-variant-caps: normal; font-weight: 400; letter-spacing: normal; orphans: 2; text-align: center; text-indent: 0px; text-transform: none; widows: 2; word-spacing: 0px; -webkit-text-stroke-width: 0px; white-space: nowrap; background-color: rgb(251, 251, 251); text-decoration-thickness: initial; text-decoration-style: initial; text-decoration-color: initial; display: inline !important; float: none;&quot;&gt;\[ \mathbb{R}^{1}\]&lt;/span&gt;" style="text;whiteSpace=wrap;html=1;" vertex="1" parent="p_UyuPN5yLSSk1cJverN-111">
          <mxGeometry x="594.5" y="357" width="35" height="36" as="geometry" />
        </mxCell>
        <mxCell id="p_UyuPN5yLSSk1cJverN-110" value="Output Layer" style="text;html=1;align=center;verticalAlign=middle;resizable=0;points=[];autosize=1;strokeColor=none;fillColor=none;" vertex="1" parent="p_UyuPN5yLSSk1cJverN-111">
          <mxGeometry width="87" height="26" as="geometry" />
        </mxCell>
        <mxCell id="qHRc62k9xq_1BSsVP0Dc-1" value="" style="group" vertex="1" connectable="0" parent="1">
          <mxGeometry x="32" y="83" width="803" height="415" as="geometry" />
        </mxCell>
        <mxCell id="w-SaohoOVKlUtVYiUDNf-2" value="" style="ellipse;whiteSpace=wrap;html=1;aspect=fixed;" parent="qHRc62k9xq_1BSsVP0Dc-1" vertex="1">
          <mxGeometry x="143.5" y="142" width="61" height="61" as="geometry" />
        </mxCell>
        <mxCell id="w-SaohoOVKlUtVYiUDNf-3" value="&lt;font style=&quot;font-size: 14px;&quot;&gt;0&lt;/font&gt;" style="ellipse;whiteSpace=wrap;html=1;aspect=fixed;" parent="qHRc62k9xq_1BSsVP0Dc-1" vertex="1">
          <mxGeometry x="143.5" y="212" width="61" height="61" as="geometry" />
        </mxCell>
        <mxCell id="w-SaohoOVKlUtVYiUDNf-6" value="7keV" style="ellipse;whiteSpace=wrap;html=1;aspect=fixed;" parent="qHRc62k9xq_1BSsVP0Dc-1" vertex="1">
          <mxGeometry x="302" y="175" width="63" height="63" as="geometry" />
        </mxCell>
        <mxCell id="w-SaohoOVKlUtVYiUDNf-7" value="8keV" style="ellipse;whiteSpace=wrap;html=1;aspect=fixed;" parent="qHRc62k9xq_1BSsVP0Dc-1" vertex="1">
          <mxGeometry x="305" y="253" width="57" height="57" as="geometry" />
        </mxCell>
        <mxCell id="w-SaohoOVKlUtVYiUDNf-8" value="6keV" style="ellipse;whiteSpace=wrap;html=1;aspect=fixed;" parent="qHRc62k9xq_1BSsVP0Dc-1" vertex="1">
          <mxGeometry x="301" y="99" width="64" height="64" as="geometry" />
        </mxCell>
        <mxCell id="w-SaohoOVKlUtVYiUDNf-12" value="" style="endArrow=classic;html=1;rounded=0;exitX=1;exitY=0.5;exitDx=0;exitDy=0;fillColor=#e51400;strokeColor=#FF0000;" parent="qHRc62k9xq_1BSsVP0Dc-1" source="w-SaohoOVKlUtVYiUDNf-2" edge="1">
          <mxGeometry width="50" height="50" relative="1" as="geometry">
            <mxPoint x="210" y="166" as="sourcePoint" />
            <mxPoint x="300" y="130" as="targetPoint" />
          </mxGeometry>
        </mxCell>
        <mxCell id="w-SaohoOVKlUtVYiUDNf-13" value="" style="endArrow=classic;html=1;rounded=0;entryX=0;entryY=0.5;entryDx=0;entryDy=0;exitX=1;exitY=0.5;exitDx=0;exitDy=0;" parent="qHRc62k9xq_1BSsVP0Dc-1" source="w-SaohoOVKlUtVYiUDNf-2" target="w-SaohoOVKlUtVYiUDNf-6" edge="1">
          <mxGeometry width="50" height="50" relative="1" as="geometry">
            <mxPoint x="220" y="176" as="sourcePoint" />
            <mxPoint x="310" y="140" as="targetPoint" />
          </mxGeometry>
        </mxCell>
        <mxCell id="w-SaohoOVKlUtVYiUDNf-14" value="" style="endArrow=classic;html=1;rounded=0;entryX=0;entryY=0.5;entryDx=0;entryDy=0;exitX=1;exitY=0.5;exitDx=0;exitDy=0;" parent="qHRc62k9xq_1BSsVP0Dc-1" source="w-SaohoOVKlUtVYiUDNf-2" target="w-SaohoOVKlUtVYiUDNf-7" edge="1">
          <mxGeometry width="50" height="50" relative="1" as="geometry">
            <mxPoint x="224" y="185" as="sourcePoint" />
            <mxPoint x="312" y="209" as="targetPoint" />
          </mxGeometry>
        </mxCell>
        <mxCell id="w-SaohoOVKlUtVYiUDNf-25" value="0.25m" style="ellipse;whiteSpace=wrap;html=1;aspect=fixed;" parent="qHRc62k9xq_1BSsVP0Dc-1" vertex="1">
          <mxGeometry x="442" y="177" width="63" height="63" as="geometry" />
        </mxCell>
        <mxCell id="w-SaohoOVKlUtVYiUDNf-26" value="0.35m" style="ellipse;whiteSpace=wrap;html=1;aspect=fixed;" parent="qHRc62k9xq_1BSsVP0Dc-1" vertex="1">
          <mxGeometry x="445" y="255" width="57" height="57" as="geometry" />
        </mxCell>
        <mxCell id="w-SaohoOVKlUtVYiUDNf-27" value="0.15m" style="ellipse;whiteSpace=wrap;html=1;aspect=fixed;" parent="qHRc62k9xq_1BSsVP0Dc-1" vertex="1">
          <mxGeometry x="441" y="101" width="64" height="64" as="geometry" />
        </mxCell>
        <mxCell id="w-SaohoOVKlUtVYiUDNf-28" value="" style="endArrow=classic;html=1;rounded=0;exitX=1;exitY=0.5;exitDx=0;exitDy=0;entryX=0;entryY=0.5;entryDx=0;entryDy=0;fillColor=#e51400;strokeColor=#FF0000;" parent="qHRc62k9xq_1BSsVP0Dc-1" source="w-SaohoOVKlUtVYiUDNf-8" target="w-SaohoOVKlUtVYiUDNf-27" edge="1">
          <mxGeometry width="50" height="50" relative="1" as="geometry">
            <mxPoint x="380" y="122" as="sourcePoint" />
            <mxPoint x="430" y="72" as="targetPoint" />
          </mxGeometry>
        </mxCell>
        <mxCell id="w-SaohoOVKlUtVYiUDNf-29" value="" style="endArrow=classic;html=1;rounded=0;exitX=1;exitY=0.5;exitDx=0;exitDy=0;entryX=0;entryY=0.5;entryDx=0;entryDy=0;" parent="qHRc62k9xq_1BSsVP0Dc-1" source="w-SaohoOVKlUtVYiUDNf-8" target="w-SaohoOVKlUtVYiUDNf-25" edge="1">
          <mxGeometry width="50" height="50" relative="1" as="geometry">
            <mxPoint x="375" y="141" as="sourcePoint" />
            <mxPoint x="451" y="143" as="targetPoint" />
          </mxGeometry>
        </mxCell>
        <mxCell id="w-SaohoOVKlUtVYiUDNf-30" value="" style="endArrow=classic;html=1;rounded=0;exitX=1;exitY=0.5;exitDx=0;exitDy=0;entryX=0;entryY=0.5;entryDx=0;entryDy=0;" parent="qHRc62k9xq_1BSsVP0Dc-1" source="w-SaohoOVKlUtVYiUDNf-8" target="w-SaohoOVKlUtVYiUDNf-26" edge="1">
          <mxGeometry width="50" height="50" relative="1" as="geometry">
            <mxPoint x="362" y="138" as="sourcePoint" />
            <mxPoint x="439" y="216" as="targetPoint" />
          </mxGeometry>
        </mxCell>
        <mxCell id="w-SaohoOVKlUtVYiUDNf-31" value="" style="endArrow=classic;html=1;rounded=0;entryX=0;entryY=0.5;entryDx=0;entryDy=0;exitX=1;exitY=0.5;exitDx=0;exitDy=0;" parent="qHRc62k9xq_1BSsVP0Dc-1" source="w-SaohoOVKlUtVYiUDNf-6" target="w-SaohoOVKlUtVYiUDNf-27" edge="1">
          <mxGeometry width="50" height="50" relative="1" as="geometry">
            <mxPoint x="366" y="203" as="sourcePoint" />
            <mxPoint x="451" y="143" as="targetPoint" />
          </mxGeometry>
        </mxCell>
        <mxCell id="w-SaohoOVKlUtVYiUDNf-32" value="" style="endArrow=classic;html=1;rounded=0;exitX=1;exitY=0.5;exitDx=0;exitDy=0;entryX=0;entryY=0.5;entryDx=0;entryDy=0;" parent="qHRc62k9xq_1BSsVP0Dc-1" source="w-SaohoOVKlUtVYiUDNf-6" target="w-SaohoOVKlUtVYiUDNf-25" edge="1">
          <mxGeometry width="50" height="50" relative="1" as="geometry">
            <mxPoint x="375" y="141" as="sourcePoint" />
            <mxPoint x="452" y="219" as="targetPoint" />
          </mxGeometry>
        </mxCell>
        <mxCell id="w-SaohoOVKlUtVYiUDNf-33" value="" style="endArrow=classic;html=1;rounded=0;exitX=1;exitY=0.5;exitDx=0;exitDy=0;entryX=0;entryY=0.5;entryDx=0;entryDy=0;" parent="qHRc62k9xq_1BSsVP0Dc-1" source="w-SaohoOVKlUtVYiUDNf-6" target="w-SaohoOVKlUtVYiUDNf-26" edge="1">
          <mxGeometry width="50" height="50" relative="1" as="geometry">
            <mxPoint x="375" y="141" as="sourcePoint" />
            <mxPoint x="455" y="294" as="targetPoint" />
          </mxGeometry>
        </mxCell>
        <mxCell id="w-SaohoOVKlUtVYiUDNf-34" value="" style="endArrow=classic;html=1;rounded=0;entryX=0;entryY=0.5;entryDx=0;entryDy=0;exitX=1;exitY=0.5;exitDx=0;exitDy=0;" parent="qHRc62k9xq_1BSsVP0Dc-1" source="w-SaohoOVKlUtVYiUDNf-7" target="w-SaohoOVKlUtVYiUDNf-27" edge="1">
          <mxGeometry width="50" height="50" relative="1" as="geometry">
            <mxPoint x="375" y="217" as="sourcePoint" />
            <mxPoint x="461" y="153" as="targetPoint" />
          </mxGeometry>
        </mxCell>
        <mxCell id="w-SaohoOVKlUtVYiUDNf-35" value="" style="endArrow=classic;html=1;rounded=0;exitX=1;exitY=0.5;exitDx=0;exitDy=0;entryX=0;entryY=0.5;entryDx=0;entryDy=0;" parent="qHRc62k9xq_1BSsVP0Dc-1" source="w-SaohoOVKlUtVYiUDNf-7" target="w-SaohoOVKlUtVYiUDNf-25" edge="1">
          <mxGeometry width="50" height="50" relative="1" as="geometry">
            <mxPoint x="375" y="217" as="sourcePoint" />
            <mxPoint x="462" y="229" as="targetPoint" />
          </mxGeometry>
        </mxCell>
        <mxCell id="w-SaohoOVKlUtVYiUDNf-36" value="" style="endArrow=classic;html=1;rounded=0;exitX=1;exitY=0.5;exitDx=0;exitDy=0;entryX=0;entryY=0.5;entryDx=0;entryDy=0;" parent="qHRc62k9xq_1BSsVP0Dc-1" source="w-SaohoOVKlUtVYiUDNf-7" target="w-SaohoOVKlUtVYiUDNf-26" edge="1">
          <mxGeometry width="50" height="50" relative="1" as="geometry">
            <mxPoint x="375" y="217" as="sourcePoint" />
            <mxPoint x="465" y="304" as="targetPoint" />
          </mxGeometry>
        </mxCell>
        <mxCell id="w-SaohoOVKlUtVYiUDNf-41" value="" style="ellipse;whiteSpace=wrap;html=1;aspect=fixed;" parent="qHRc62k9xq_1BSsVP0Dc-1" vertex="1">
          <mxGeometry x="581.5" y="178" width="61" height="61" as="geometry" />
        </mxCell>
        <mxCell id="w-SaohoOVKlUtVYiUDNf-43" value="" style="endArrow=classic;html=1;rounded=0;entryX=0;entryY=0.5;entryDx=0;entryDy=0;exitX=1;exitY=0.5;exitDx=0;exitDy=0;fillColor=#e51400;strokeColor=#FF0000;" parent="qHRc62k9xq_1BSsVP0Dc-1" source="w-SaohoOVKlUtVYiUDNf-27" target="w-SaohoOVKlUtVYiUDNf-41" edge="1">
          <mxGeometry width="50" height="50" relative="1" as="geometry">
            <mxPoint x="515" y="143" as="sourcePoint" />
            <mxPoint x="591" y="184" as="targetPoint" />
          </mxGeometry>
        </mxCell>
        <mxCell id="w-SaohoOVKlUtVYiUDNf-45" value="" style="endArrow=classic;html=1;rounded=0;entryX=0;entryY=0.5;entryDx=0;entryDy=0;exitX=1;exitY=0.5;exitDx=0;exitDy=0;" parent="qHRc62k9xq_1BSsVP0Dc-1" source="w-SaohoOVKlUtVYiUDNf-25" target="w-SaohoOVKlUtVYiUDNf-41" edge="1">
          <mxGeometry width="50" height="50" relative="1" as="geometry">
            <mxPoint x="515" y="143" as="sourcePoint" />
            <mxPoint x="591" y="254" as="targetPoint" />
          </mxGeometry>
        </mxCell>
        <mxCell id="w-SaohoOVKlUtVYiUDNf-47" value="" style="endArrow=classic;html=1;rounded=0;entryX=0;entryY=0.5;entryDx=0;entryDy=0;exitX=1;exitY=0.5;exitDx=0;exitDy=0;" parent="qHRc62k9xq_1BSsVP0Dc-1" source="w-SaohoOVKlUtVYiUDNf-26" target="w-SaohoOVKlUtVYiUDNf-41" edge="1">
          <mxGeometry width="50" height="50" relative="1" as="geometry">
            <mxPoint x="515" y="219" as="sourcePoint" />
            <mxPoint x="591" y="254" as="targetPoint" />
          </mxGeometry>
        </mxCell>
        <mxCell id="w-SaohoOVKlUtVYiUDNf-49" value="Peaks Classification" style="text;html=1;align=center;verticalAlign=middle;resizable=0;points=[];autosize=1;strokeColor=none;fillColor=none;" parent="qHRc62k9xq_1BSsVP0Dc-1" vertex="1">
          <mxGeometry x="112" y="61" width="125" height="26" as="geometry" />
        </mxCell>
        <mxCell id="w-SaohoOVKlUtVYiUDNf-50" value="Photon Energy" style="text;html=1;align=center;verticalAlign=middle;resizable=0;points=[];autosize=1;strokeColor=none;fillColor=none;" parent="qHRc62k9xq_1BSsVP0Dc-1" vertex="1">
          <mxGeometry x="282" y="61" width="97" height="26" as="geometry" />
        </mxCell>
        <mxCell id="w-SaohoOVKlUtVYiUDNf-51" value="Camera Length" style="text;html=1;align=center;verticalAlign=middle;resizable=0;points=[];autosize=1;strokeColor=none;fillColor=none;" parent="qHRc62k9xq_1BSsVP0Dc-1" vertex="1">
          <mxGeometry x="423" y="61" width="101" height="26" as="geometry" />
        </mxCell>
        <mxCell id="w-SaohoOVKlUtVYiUDNf-52" value="&lt;font style=&quot;font-size: 14px;&quot;&gt;1&lt;/font&gt;" style="text;html=1;align=center;verticalAlign=middle;resizable=0;points=[];autosize=1;strokeColor=none;fillColor=none;" parent="qHRc62k9xq_1BSsVP0Dc-1" vertex="1">
          <mxGeometry x="161.5" y="158.5" width="26" height="29" as="geometry" />
        </mxCell>
        <mxCell id="w-SaohoOVKlUtVYiUDNf-53" value="Deep Learning Output" style="text;html=1;align=center;verticalAlign=middle;resizable=0;points=[];autosize=1;strokeColor=none;fillColor=none;" parent="qHRc62k9xq_1BSsVP0Dc-1" vertex="1">
          <mxGeometry x="541" y="61" width="136" height="26" as="geometry" />
        </mxCell>
        <mxCell id="w-SaohoOVKlUtVYiUDNf-55" value="" style="shape=curlyBracket;whiteSpace=wrap;html=1;rounded=1;labelPosition=left;verticalLabelPosition=middle;align=right;verticalAlign=middle;" parent="qHRc62k9xq_1BSsVP0Dc-1" vertex="1">
          <mxGeometry x="651" y="165.5" width="20" height="87.5" as="geometry" />
        </mxCell>
        <mxCell id="w-SaohoOVKlUtVYiUDNf-56" value="Predictions:" style="text;html=1;align=center;verticalAlign=middle;resizable=0;points=[];autosize=1;strokeColor=none;fillColor=none;" parent="qHRc62k9xq_1BSsVP0Dc-1" vertex="1">
          <mxGeometry x="696.5" y="61" width="81" height="26" as="geometry" />
        </mxCell>
        <mxCell id="w-SaohoOVKlUtVYiUDNf-59" value="peak: 1&lt;div&gt;&lt;br&gt;&lt;/div&gt;&lt;div&gt;photon_energy: 6keV&lt;/div&gt;&lt;div&gt;&lt;br&gt;&lt;/div&gt;&lt;div&gt;clen: 0.15m&lt;/div&gt;" style="text;html=1;align=left;verticalAlign=middle;resizable=0;points=[];autosize=1;strokeColor=none;fillColor=none;" parent="qHRc62k9xq_1BSsVP0Dc-1" vertex="1">
          <mxGeometry x="671" y="165.5" width="132" height="84" as="geometry" />
        </mxCell>
        <mxCell id="w-SaohoOVKlUtVYiUDNf-79" value="&lt;span style=&quot;color: rgb(0, 0, 0); font-family: Helvetica; font-style: normal; font-variant-ligatures: normal; font-variant-caps: normal; font-weight: 700; letter-spacing: normal; orphans: 2; text-align: center; text-indent: 0px; text-transform: none; widows: 2; word-spacing: 0px; -webkit-text-stroke-width: 0px; white-space: nowrap; background-color: rgb(251, 251, 251); text-decoration-thickness: initial; text-decoration-style: initial; text-decoration-color: initial; float: none; display: inline !important;&quot;&gt;&lt;font style=&quot;font-size: 14px;&quot;&gt;Model Pipeline&lt;/font&gt;&lt;/span&gt;" style="text;whiteSpace=wrap;html=1;" parent="qHRc62k9xq_1BSsVP0Dc-1" vertex="1">
          <mxGeometry x="326" y="6" width="104" height="27" as="geometry" />
        </mxCell>
        <mxCell id="w-SaohoOVKlUtVYiUDNf-82" value="Example:" style="text;html=1;align=center;verticalAlign=middle;resizable=0;points=[];autosize=1;strokeColor=none;fillColor=none;" parent="qHRc62k9xq_1BSsVP0Dc-1" vertex="1">
          <mxGeometry x="653" y="142" width="68" height="26" as="geometry" />
        </mxCell>
        <mxCell id="yXospANMbYNF7hZxDhhI-1" value="" style="endArrow=classic;html=1;rounded=0;exitX=0.974;exitY=0.596;exitDx=0;exitDy=0;exitPerimeter=0;" edge="1" parent="qHRc62k9xq_1BSsVP0Dc-1" source="w-SaohoOVKlUtVYiUDNf-3" target="yXospANMbYNF7hZxDhhI-2">
          <mxGeometry width="50" height="50" relative="1" as="geometry">
            <mxPoint x="204.5" y="247" as="sourcePoint" />
            <mxPoint x="301" y="341" as="targetPoint" />
          </mxGeometry>
        </mxCell>
        <mxCell id="yXospANMbYNF7hZxDhhI-2" value="Terminated" style="text;html=1;align=center;verticalAlign=middle;resizable=0;points=[];autosize=1;strokeColor=none;fillColor=none;" vertex="1" parent="qHRc62k9xq_1BSsVP0Dc-1">
          <mxGeometry x="292" y="331" width="77" height="26" as="geometry" />
        </mxCell>
        <mxCell id="yXospANMbYNF7hZxDhhI-3" value="" style="ellipse;whiteSpace=wrap;html=1;aspect=fixed;" vertex="1" parent="qHRc62k9xq_1BSsVP0Dc-1">
          <mxGeometry x="12" y="109" width="63" height="63" as="geometry" />
        </mxCell>
        <mxCell id="yXospANMbYNF7hZxDhhI-5" value="" style="ellipse;whiteSpace=wrap;html=1;aspect=fixed;" vertex="1" parent="qHRc62k9xq_1BSsVP0Dc-1">
          <mxGeometry x="11" y="33" width="64" height="64" as="geometry" />
        </mxCell>
        <mxCell id="yXospANMbYNF7hZxDhhI-6" value="" style="ellipse;whiteSpace=wrap;html=1;aspect=fixed;" vertex="1" parent="qHRc62k9xq_1BSsVP0Dc-1">
          <mxGeometry x="11" y="215" width="63" height="63" as="geometry" />
        </mxCell>
        <mxCell id="yXospANMbYNF7hZxDhhI-7" value="" style="ellipse;whiteSpace=wrap;html=1;aspect=fixed;" vertex="1" parent="qHRc62k9xq_1BSsVP0Dc-1">
          <mxGeometry x="14" y="293" width="57" height="57" as="geometry" />
        </mxCell>
        <mxCell id="yXospANMbYNF7hZxDhhI-11" value="&lt;font style=&quot;font-size: 25px;&quot;&gt;...&lt;/font&gt;" style="text;html=1;align=center;verticalAlign=middle;resizable=0;points=[];autosize=1;strokeColor=none;fillColor=none;rotation=90;" vertex="1" parent="qHRc62k9xq_1BSsVP0Dc-1">
          <mxGeometry x="32" y="172" width="39" height="42" as="geometry" />
        </mxCell>
        <mxCell id="yXospANMbYNF7hZxDhhI-12" value="" style="endArrow=classic;html=1;rounded=0;exitX=0.99;exitY=0.551;exitDx=0;exitDy=0;entryX=0;entryY=0.5;entryDx=0;entryDy=0;exitPerimeter=0;" edge="1" parent="qHRc62k9xq_1BSsVP0Dc-1" source="yXospANMbYNF7hZxDhhI-5" target="w-SaohoOVKlUtVYiUDNf-2">
          <mxGeometry width="50" height="50" relative="1" as="geometry">
            <mxPoint x="77" y="67" as="sourcePoint" />
            <mxPoint x="172" y="24" as="targetPoint" />
          </mxGeometry>
        </mxCell>
        <mxCell id="yXospANMbYNF7hZxDhhI-13" value="" style="endArrow=classic;html=1;rounded=0;entryX=0.001;entryY=0.458;entryDx=0;entryDy=0;exitX=1;exitY=0.5;exitDx=0;exitDy=0;entryPerimeter=0;" edge="1" parent="qHRc62k9xq_1BSsVP0Dc-1">
          <mxGeometry width="50" height="50" relative="1" as="geometry">
            <mxPoint x="75.00000000000011" y="68.30999999999995" as="sourcePoint" />
            <mxPoint x="143.56100000000004" y="243.2480000000001" as="targetPoint" />
          </mxGeometry>
        </mxCell>
        <mxCell id="yXospANMbYNF7hZxDhhI-16" value="" style="endArrow=classic;html=1;rounded=0;exitX=1;exitY=0.5;exitDx=0;exitDy=0;entryX=0.014;entryY=0.553;entryDx=0;entryDy=0;entryPerimeter=0;" edge="1" parent="qHRc62k9xq_1BSsVP0Dc-1" source="yXospANMbYNF7hZxDhhI-3" target="w-SaohoOVKlUtVYiUDNf-3">
          <mxGeometry width="50" height="50" relative="1" as="geometry">
            <mxPoint x="87" y="77" as="sourcePoint" />
            <mxPoint x="131" y="263" as="targetPoint" />
          </mxGeometry>
        </mxCell>
        <mxCell id="yXospANMbYNF7hZxDhhI-19" value="" style="endArrow=classic;html=1;rounded=0;exitX=1;exitY=0.5;exitDx=0;exitDy=0;entryX=0;entryY=0.5;entryDx=0;entryDy=0;" edge="1" parent="qHRc62k9xq_1BSsVP0Dc-1" source="yXospANMbYNF7hZxDhhI-3" target="w-SaohoOVKlUtVYiUDNf-2">
          <mxGeometry width="50" height="50" relative="1" as="geometry">
            <mxPoint x="85" y="150" as="sourcePoint" />
            <mxPoint x="153" y="253" as="targetPoint" />
          </mxGeometry>
        </mxCell>
        <mxCell id="yXospANMbYNF7hZxDhhI-20" value="" style="endArrow=classic;html=1;rounded=0;exitX=1;exitY=0.5;exitDx=0;exitDy=0;entryX=0;entryY=0.5;entryDx=0;entryDy=0;" edge="1" parent="qHRc62k9xq_1BSsVP0Dc-1" source="yXospANMbYNF7hZxDhhI-6" target="w-SaohoOVKlUtVYiUDNf-2">
          <mxGeometry width="50" height="50" relative="1" as="geometry">
            <mxPoint x="75" y="250" as="sourcePoint" />
            <mxPoint x="143" y="353" as="targetPoint" />
          </mxGeometry>
        </mxCell>
        <mxCell id="yXospANMbYNF7hZxDhhI-21" value="" style="endArrow=classic;html=1;rounded=0;exitX=1;exitY=0.5;exitDx=0;exitDy=0;" edge="1" parent="qHRc62k9xq_1BSsVP0Dc-1" source="yXospANMbYNF7hZxDhhI-6" target="w-SaohoOVKlUtVYiUDNf-3">
          <mxGeometry width="50" height="50" relative="1" as="geometry">
            <mxPoint x="75" y="250" as="sourcePoint" />
            <mxPoint x="143" y="283" as="targetPoint" />
          </mxGeometry>
        </mxCell>
        <mxCell id="yXospANMbYNF7hZxDhhI-22" value="" style="endArrow=classic;html=1;rounded=0;exitX=1;exitY=0.5;exitDx=0;exitDy=0;entryX=0;entryY=0.5;entryDx=0;entryDy=0;" edge="1" parent="qHRc62k9xq_1BSsVP0Dc-1" target="w-SaohoOVKlUtVYiUDNf-3">
          <mxGeometry width="50" height="50" relative="1" as="geometry">
            <mxPoint x="71" y="324" as="sourcePoint" />
            <mxPoint x="140" y="250" as="targetPoint" />
          </mxGeometry>
        </mxCell>
        <mxCell id="yXospANMbYNF7hZxDhhI-23" value="" style="endArrow=classic;html=1;rounded=0;exitX=1;exitY=0.5;exitDx=0;exitDy=0;entryX=0.021;entryY=0.451;entryDx=0;entryDy=0;entryPerimeter=0;" edge="1" parent="qHRc62k9xq_1BSsVP0Dc-1" target="w-SaohoOVKlUtVYiUDNf-2">
          <mxGeometry width="50" height="50" relative="1" as="geometry">
            <mxPoint x="71" y="324" as="sourcePoint" />
            <mxPoint x="140" y="320" as="targetPoint" />
          </mxGeometry>
        </mxCell>
        <mxCell id="yXospANMbYNF7hZxDhhI-25" value="&lt;div style=&quot;text-align: center;&quot;&gt;&lt;span style=&quot;text-wrap: nowrap;&quot;&gt;\[ \mathbb{R}^{4,533,648}\]&lt;/span&gt;&lt;br&gt;&lt;/div&gt;" style="text;whiteSpace=wrap;html=1;" vertex="1" parent="qHRc62k9xq_1BSsVP0Dc-1">
          <mxGeometry x="26" y="361" width="42.5" height="54" as="geometry" />
        </mxCell>
        <mxCell id="xPdqhNJqXZiTPGPNZBOJ-121" value="&lt;span style=&quot;color: rgb(0, 0, 0); font-family: Helvetica; font-size: 12px; font-style: normal; font-variant-ligatures: normal; font-variant-caps: normal; font-weight: 400; letter-spacing: normal; orphans: 2; text-align: center; text-indent: 0px; text-transform: none; widows: 2; word-spacing: 0px; -webkit-text-stroke-width: 0px; white-space: nowrap; background-color: rgb(251, 251, 251); text-decoration-thickness: initial; text-decoration-style: initial; text-decoration-color: initial; display: inline !important; float: none;&quot;&gt;\[ \mathbb{R}^{2}\]&lt;/span&gt;" style="text;whiteSpace=wrap;html=1;" vertex="1" parent="qHRc62k9xq_1BSsVP0Dc-1">
          <mxGeometry x="150.56" y="361" width="19" height="47" as="geometry" />
        </mxCell>
        <mxCell id="xPdqhNJqXZiTPGPNZBOJ-122" value="&lt;span style=&quot;color: rgb(0, 0, 0); font-family: Helvetica; font-size: 12px; font-style: normal; font-variant-ligatures: normal; font-variant-caps: normal; font-weight: 400; letter-spacing: normal; orphans: 2; text-align: center; text-indent: 0px; text-transform: none; widows: 2; word-spacing: 0px; -webkit-text-stroke-width: 0px; white-space: nowrap; background-color: rgb(251, 251, 251); text-decoration-thickness: initial; text-decoration-style: initial; text-decoration-color: initial; display: inline !important; float: none;&quot;&gt;\[ \mathbb{R}^{3}\]&lt;/span&gt;" style="text;whiteSpace=wrap;html=1;" vertex="1" parent="qHRc62k9xq_1BSsVP0Dc-1">
          <mxGeometry x="319" y="361" width="35" height="36" as="geometry" />
        </mxCell>
        <mxCell id="xPdqhNJqXZiTPGPNZBOJ-123" value="&lt;span style=&quot;color: rgb(0, 0, 0); font-family: Helvetica; font-size: 12px; font-style: normal; font-variant-ligatures: normal; font-variant-caps: normal; font-weight: 400; letter-spacing: normal; orphans: 2; text-align: center; text-indent: 0px; text-transform: none; widows: 2; word-spacing: 0px; -webkit-text-stroke-width: 0px; white-space: nowrap; background-color: rgb(251, 251, 251); text-decoration-thickness: initial; text-decoration-style: initial; text-decoration-color: initial; display: inline !important; float: none;&quot;&gt;\[ \mathbb{R}^{3}\]&lt;/span&gt;" style="text;whiteSpace=wrap;html=1;" vertex="1" parent="qHRc62k9xq_1BSsVP0Dc-1">
          <mxGeometry x="459" y="357" width="35" height="36" as="geometry" />
        </mxCell>
        <mxCell id="xPdqhNJqXZiTPGPNZBOJ-124" value="&lt;span style=&quot;color: rgb(0, 0, 0); font-family: Helvetica; font-size: 12px; font-style: normal; font-variant-ligatures: normal; font-variant-caps: normal; font-weight: 400; letter-spacing: normal; orphans: 2; text-align: center; text-indent: 0px; text-transform: none; widows: 2; word-spacing: 0px; -webkit-text-stroke-width: 0px; white-space: nowrap; background-color: rgb(251, 251, 251); text-decoration-thickness: initial; text-decoration-style: initial; text-decoration-color: initial; display: inline !important; float: none;&quot;&gt;\[ \mathbb{R}^{1}\]&lt;/span&gt;" style="text;whiteSpace=wrap;html=1;" vertex="1" parent="qHRc62k9xq_1BSsVP0Dc-1">
          <mxGeometry x="594.5" y="357" width="35" height="36" as="geometry" />
        </mxCell>
        <mxCell id="xPdqhNJqXZiTPGPNZBOJ-125" value="Output Layer" style="text;html=1;align=center;verticalAlign=middle;resizable=0;points=[];autosize=1;strokeColor=none;fillColor=none;" vertex="1" parent="qHRc62k9xq_1BSsVP0Dc-1">
          <mxGeometry width="87" height="26" as="geometry" />
        </mxCell>
      </root>
    </mxGraphModel>
  </diagram>
  <diagram id="d1ePzN7V05_Nin7CRoUv" name="Page-4">
    <mxGraphModel dx="995" dy="702" grid="0" gridSize="10" guides="1" tooltips="1" connect="1" arrows="1" fold="1" page="1" pageScale="1" pageWidth="850" pageHeight="1100" math="1" shadow="0">
      <root>
        <mxCell id="0" />
        <mxCell id="1" parent="0" />
        <mxCell id="n4geK9pxtCrBtXwaU8dr-59" value="&#xa;" style="group" vertex="1" connectable="0" parent="1">
          <mxGeometry x="13" y="13" width="815" height="468" as="geometry" />
        </mxCell>
        <mxCell id="A6QtjtSVo6RPyhmmXlHa-82" value="Overlay Image" style="whiteSpace=wrap;html=1;" vertex="1" parent="n4geK9pxtCrBtXwaU8dr-59">
          <mxGeometry x="15" y="223" width="122" height="108" as="geometry" />
        </mxCell>
        <mxCell id="A6QtjtSVo6RPyhmmXlHa-83" value="np.array" style="text;html=1;align=center;verticalAlign=middle;resizable=0;points=[];autosize=1;strokeColor=none;fillColor=none;" vertex="1" parent="n4geK9pxtCrBtXwaU8dr-59">
          <mxGeometry x="45" y="337" width="62" height="26" as="geometry" />
        </mxCell>
        <mxCell id="A6QtjtSVo6RPyhmmXlHa-84" value="&lt;span style=&quot;color: rgb(0, 0, 0); font-family: Helvetica; font-style: normal; font-variant-ligatures: normal; font-variant-caps: normal; font-weight: 700; letter-spacing: normal; orphans: 2; text-align: center; text-indent: 0px; text-transform: none; widows: 2; word-spacing: 0px; -webkit-text-stroke-width: 0px; white-space: nowrap; background-color: rgb(251, 251, 251); text-decoration-thickness: initial; text-decoration-style: initial; text-decoration-color: initial; float: none; display: inline !important;&quot;&gt;&lt;font style=&quot;font-size: 14px;&quot;&gt;Water-background Subtraction Sequence&lt;/font&gt;&lt;/span&gt;" style="text;whiteSpace=wrap;html=1;" vertex="1" parent="n4geK9pxtCrBtXwaU8dr-59">
          <mxGeometry x="265" width="280" height="30" as="geometry" />
        </mxCell>
        <mxCell id="A6QtjtSVo6RPyhmmXlHa-85" value="Input Images" style="text;html=1;align=center;verticalAlign=middle;resizable=0;points=[];autosize=1;strokeColor=none;fillColor=none;" vertex="1" parent="n4geK9pxtCrBtXwaU8dr-59">
          <mxGeometry x="20" y="46" width="87" height="26" as="geometry" />
        </mxCell>
        <mxCell id="A6QtjtSVo6RPyhmmXlHa-86" value="" style="strokeWidth=2;html=1;shape=mxgraph.flowchart.annotation_2;align=left;labelPosition=right;pointerEvents=1;" vertex="1" parent="n4geK9pxtCrBtXwaU8dr-59">
          <mxGeometry x="137" y="81" width="29" height="387" as="geometry" />
        </mxCell>
        <mxCell id="A6QtjtSVo6RPyhmmXlHa-87" value="" style="group" vertex="1" connectable="0" parent="n4geK9pxtCrBtXwaU8dr-59">
          <mxGeometry x="175" y="290" width="67.44444444444446" height="66" as="geometry" />
        </mxCell>
        <mxCell id="A6QtjtSVo6RPyhmmXlHa-88" value="" style="shape=table;startSize=0;container=1;collapsible=0;childLayout=tableLayout;fontSize=16;" vertex="1" parent="A6QtjtSVo6RPyhmmXlHa-87">
          <mxGeometry width="67.44444444444446" height="66" as="geometry" />
        </mxCell>
        <mxCell id="A6QtjtSVo6RPyhmmXlHa-89" value="" style="shape=tableRow;horizontal=0;startSize=0;swimlaneHead=0;swimlaneBody=0;strokeColor=inherit;top=0;left=0;bottom=0;right=0;collapsible=0;dropTarget=0;fillColor=none;points=[[0,0.5],[1,0.5]];portConstraint=eastwest;fontSize=16;" vertex="1" parent="A6QtjtSVo6RPyhmmXlHa-88">
          <mxGeometry width="67.44444444444446" height="22" as="geometry" />
        </mxCell>
        <mxCell id="A6QtjtSVo6RPyhmmXlHa-90" value="" style="shape=partialRectangle;html=1;whiteSpace=wrap;connectable=0;strokeColor=inherit;overflow=hidden;fillColor=none;top=0;left=0;bottom=0;right=0;pointerEvents=1;fontSize=16;" vertex="1" parent="A6QtjtSVo6RPyhmmXlHa-89">
          <mxGeometry width="22" height="22" as="geometry">
            <mxRectangle width="22" height="22" as="alternateBounds" />
          </mxGeometry>
        </mxCell>
        <mxCell id="A6QtjtSVo6RPyhmmXlHa-91" value="" style="shape=partialRectangle;html=1;whiteSpace=wrap;connectable=0;strokeColor=inherit;overflow=hidden;fillColor=none;top=0;left=0;bottom=0;right=0;pointerEvents=1;fontSize=16;" vertex="1" parent="A6QtjtSVo6RPyhmmXlHa-89">
          <mxGeometry x="22" width="23" height="22" as="geometry">
            <mxRectangle width="23" height="22" as="alternateBounds" />
          </mxGeometry>
        </mxCell>
        <mxCell id="A6QtjtSVo6RPyhmmXlHa-92" value="" style="shape=partialRectangle;html=1;whiteSpace=wrap;connectable=0;strokeColor=inherit;overflow=hidden;fillColor=none;top=0;left=0;bottom=0;right=0;pointerEvents=1;fontSize=16;" vertex="1" parent="A6QtjtSVo6RPyhmmXlHa-89">
          <mxGeometry x="45" width="22" height="22" as="geometry">
            <mxRectangle width="22" height="22" as="alternateBounds" />
          </mxGeometry>
        </mxCell>
        <mxCell id="A6QtjtSVo6RPyhmmXlHa-93" value="" style="shape=tableRow;horizontal=0;startSize=0;swimlaneHead=0;swimlaneBody=0;strokeColor=inherit;top=0;left=0;bottom=0;right=0;collapsible=0;dropTarget=0;fillColor=none;points=[[0,0.5],[1,0.5]];portConstraint=eastwest;fontSize=16;" vertex="1" parent="A6QtjtSVo6RPyhmmXlHa-88">
          <mxGeometry y="22" width="67.44444444444446" height="23" as="geometry" />
        </mxCell>
        <mxCell id="A6QtjtSVo6RPyhmmXlHa-94" value="" style="shape=partialRectangle;html=1;whiteSpace=wrap;connectable=0;strokeColor=inherit;overflow=hidden;fillColor=none;top=0;left=0;bottom=0;right=0;pointerEvents=1;fontSize=16;" vertex="1" parent="A6QtjtSVo6RPyhmmXlHa-93">
          <mxGeometry width="22" height="23" as="geometry">
            <mxRectangle width="22" height="23" as="alternateBounds" />
          </mxGeometry>
        </mxCell>
        <mxCell id="A6QtjtSVo6RPyhmmXlHa-95" value="" style="shape=partialRectangle;html=1;whiteSpace=wrap;connectable=0;strokeColor=inherit;overflow=hidden;fillColor=none;top=0;left=0;bottom=0;right=0;pointerEvents=1;fontSize=16;" vertex="1" parent="A6QtjtSVo6RPyhmmXlHa-93">
          <mxGeometry x="22" width="23" height="23" as="geometry">
            <mxRectangle width="23" height="23" as="alternateBounds" />
          </mxGeometry>
        </mxCell>
        <mxCell id="A6QtjtSVo6RPyhmmXlHa-96" value="" style="shape=partialRectangle;html=1;whiteSpace=wrap;connectable=0;strokeColor=inherit;overflow=hidden;fillColor=none;top=0;left=0;bottom=0;right=0;pointerEvents=1;fontSize=16;" vertex="1" parent="A6QtjtSVo6RPyhmmXlHa-93">
          <mxGeometry x="45" width="22" height="23" as="geometry">
            <mxRectangle width="22" height="23" as="alternateBounds" />
          </mxGeometry>
        </mxCell>
        <mxCell id="A6QtjtSVo6RPyhmmXlHa-97" value="" style="shape=tableRow;horizontal=0;startSize=0;swimlaneHead=0;swimlaneBody=0;strokeColor=inherit;top=0;left=0;bottom=0;right=0;collapsible=0;dropTarget=0;fillColor=none;points=[[0,0.5],[1,0.5]];portConstraint=eastwest;fontSize=16;" vertex="1" parent="A6QtjtSVo6RPyhmmXlHa-88">
          <mxGeometry y="45" width="67.44444444444446" height="21" as="geometry" />
        </mxCell>
        <mxCell id="A6QtjtSVo6RPyhmmXlHa-98" value="" style="shape=partialRectangle;html=1;whiteSpace=wrap;connectable=0;strokeColor=inherit;overflow=hidden;fillColor=none;top=0;left=0;bottom=0;right=0;pointerEvents=1;fontSize=16;" vertex="1" parent="A6QtjtSVo6RPyhmmXlHa-97">
          <mxGeometry width="22" height="21" as="geometry">
            <mxRectangle width="22" height="21" as="alternateBounds" />
          </mxGeometry>
        </mxCell>
        <mxCell id="A6QtjtSVo6RPyhmmXlHa-99" value="" style="shape=partialRectangle;html=1;whiteSpace=wrap;connectable=0;strokeColor=inherit;overflow=hidden;fillColor=none;top=0;left=0;bottom=0;right=0;pointerEvents=1;fontSize=16;" vertex="1" parent="A6QtjtSVo6RPyhmmXlHa-97">
          <mxGeometry x="22" width="23" height="21" as="geometry">
            <mxRectangle width="23" height="21" as="alternateBounds" />
          </mxGeometry>
        </mxCell>
        <mxCell id="A6QtjtSVo6RPyhmmXlHa-100" value="" style="shape=partialRectangle;html=1;whiteSpace=wrap;connectable=0;strokeColor=inherit;overflow=hidden;fillColor=none;top=0;left=0;bottom=0;right=0;pointerEvents=1;fontSize=16;" vertex="1" parent="A6QtjtSVo6RPyhmmXlHa-97">
          <mxGeometry x="45" width="22" height="21" as="geometry">
            <mxRectangle width="22" height="21" as="alternateBounds" />
          </mxGeometry>
        </mxCell>
        <mxCell id="A6QtjtSVo6RPyhmmXlHa-101" value="" style="ellipse;whiteSpace=wrap;html=1;aspect=fixed;fillColor=none;" vertex="1" parent="A6QtjtSVo6RPyhmmXlHa-87">
          <mxGeometry x="7.720000000000027" y="7" width="52" height="52" as="geometry" />
        </mxCell>
        <mxCell id="A6QtjtSVo6RPyhmmXlHa-102" value="" style="group" vertex="1" connectable="0" parent="n4geK9pxtCrBtXwaU8dr-59">
          <mxGeometry x="175" y="393" width="67.44444444444446" height="66" as="geometry" />
        </mxCell>
        <mxCell id="A6QtjtSVo6RPyhmmXlHa-103" value="" style="shape=table;startSize=0;container=1;collapsible=0;childLayout=tableLayout;fontSize=16;" vertex="1" parent="A6QtjtSVo6RPyhmmXlHa-102">
          <mxGeometry width="67.44444444444446" height="66" as="geometry" />
        </mxCell>
        <mxCell id="A6QtjtSVo6RPyhmmXlHa-104" value="" style="shape=tableRow;horizontal=0;startSize=0;swimlaneHead=0;swimlaneBody=0;strokeColor=inherit;top=0;left=0;bottom=0;right=0;collapsible=0;dropTarget=0;fillColor=none;points=[[0,0.5],[1,0.5]];portConstraint=eastwest;fontSize=16;" vertex="1" parent="A6QtjtSVo6RPyhmmXlHa-103">
          <mxGeometry width="67.44444444444446" height="22" as="geometry" />
        </mxCell>
        <mxCell id="A6QtjtSVo6RPyhmmXlHa-105" value="" style="shape=partialRectangle;html=1;whiteSpace=wrap;connectable=0;strokeColor=inherit;overflow=hidden;fillColor=none;top=0;left=0;bottom=0;right=0;pointerEvents=1;fontSize=16;" vertex="1" parent="A6QtjtSVo6RPyhmmXlHa-104">
          <mxGeometry width="22" height="22" as="geometry">
            <mxRectangle width="22" height="22" as="alternateBounds" />
          </mxGeometry>
        </mxCell>
        <mxCell id="A6QtjtSVo6RPyhmmXlHa-106" value="" style="shape=partialRectangle;html=1;whiteSpace=wrap;connectable=0;strokeColor=inherit;overflow=hidden;fillColor=none;top=0;left=0;bottom=0;right=0;pointerEvents=1;fontSize=16;" vertex="1" parent="A6QtjtSVo6RPyhmmXlHa-104">
          <mxGeometry x="22" width="23" height="22" as="geometry">
            <mxRectangle width="23" height="22" as="alternateBounds" />
          </mxGeometry>
        </mxCell>
        <mxCell id="A6QtjtSVo6RPyhmmXlHa-107" value="" style="shape=partialRectangle;html=1;whiteSpace=wrap;connectable=0;strokeColor=inherit;overflow=hidden;fillColor=none;top=0;left=0;bottom=0;right=0;pointerEvents=1;fontSize=16;" vertex="1" parent="A6QtjtSVo6RPyhmmXlHa-104">
          <mxGeometry x="45" width="22" height="22" as="geometry">
            <mxRectangle width="22" height="22" as="alternateBounds" />
          </mxGeometry>
        </mxCell>
        <mxCell id="A6QtjtSVo6RPyhmmXlHa-108" value="" style="shape=tableRow;horizontal=0;startSize=0;swimlaneHead=0;swimlaneBody=0;strokeColor=inherit;top=0;left=0;bottom=0;right=0;collapsible=0;dropTarget=0;fillColor=none;points=[[0,0.5],[1,0.5]];portConstraint=eastwest;fontSize=16;" vertex="1" parent="A6QtjtSVo6RPyhmmXlHa-103">
          <mxGeometry y="22" width="67.44444444444446" height="23" as="geometry" />
        </mxCell>
        <mxCell id="A6QtjtSVo6RPyhmmXlHa-109" value="" style="shape=partialRectangle;html=1;whiteSpace=wrap;connectable=0;strokeColor=inherit;overflow=hidden;fillColor=none;top=0;left=0;bottom=0;right=0;pointerEvents=1;fontSize=16;" vertex="1" parent="A6QtjtSVo6RPyhmmXlHa-108">
          <mxGeometry width="22" height="23" as="geometry">
            <mxRectangle width="22" height="23" as="alternateBounds" />
          </mxGeometry>
        </mxCell>
        <mxCell id="A6QtjtSVo6RPyhmmXlHa-110" value="" style="shape=partialRectangle;html=1;whiteSpace=wrap;connectable=0;strokeColor=inherit;overflow=hidden;fillColor=none;top=0;left=0;bottom=0;right=0;pointerEvents=1;fontSize=16;" vertex="1" parent="A6QtjtSVo6RPyhmmXlHa-108">
          <mxGeometry x="22" width="23" height="23" as="geometry">
            <mxRectangle width="23" height="23" as="alternateBounds" />
          </mxGeometry>
        </mxCell>
        <mxCell id="A6QtjtSVo6RPyhmmXlHa-111" value="" style="shape=partialRectangle;html=1;whiteSpace=wrap;connectable=0;strokeColor=inherit;overflow=hidden;fillColor=none;top=0;left=0;bottom=0;right=0;pointerEvents=1;fontSize=16;" vertex="1" parent="A6QtjtSVo6RPyhmmXlHa-108">
          <mxGeometry x="45" width="22" height="23" as="geometry">
            <mxRectangle width="22" height="23" as="alternateBounds" />
          </mxGeometry>
        </mxCell>
        <mxCell id="A6QtjtSVo6RPyhmmXlHa-112" value="" style="shape=tableRow;horizontal=0;startSize=0;swimlaneHead=0;swimlaneBody=0;strokeColor=inherit;top=0;left=0;bottom=0;right=0;collapsible=0;dropTarget=0;fillColor=none;points=[[0,0.5],[1,0.5]];portConstraint=eastwest;fontSize=16;" vertex="1" parent="A6QtjtSVo6RPyhmmXlHa-103">
          <mxGeometry y="45" width="67.44444444444446" height="21" as="geometry" />
        </mxCell>
        <mxCell id="A6QtjtSVo6RPyhmmXlHa-113" value="" style="shape=partialRectangle;html=1;whiteSpace=wrap;connectable=0;strokeColor=inherit;overflow=hidden;fillColor=none;top=0;left=0;bottom=0;right=0;pointerEvents=1;fontSize=16;" vertex="1" parent="A6QtjtSVo6RPyhmmXlHa-112">
          <mxGeometry width="22" height="21" as="geometry">
            <mxRectangle width="22" height="21" as="alternateBounds" />
          </mxGeometry>
        </mxCell>
        <mxCell id="A6QtjtSVo6RPyhmmXlHa-114" value="" style="shape=partialRectangle;html=1;whiteSpace=wrap;connectable=0;strokeColor=inherit;overflow=hidden;fillColor=none;top=0;left=0;bottom=0;right=0;pointerEvents=1;fontSize=16;" vertex="1" parent="A6QtjtSVo6RPyhmmXlHa-112">
          <mxGeometry x="22" width="23" height="21" as="geometry">
            <mxRectangle width="23" height="21" as="alternateBounds" />
          </mxGeometry>
        </mxCell>
        <mxCell id="A6QtjtSVo6RPyhmmXlHa-115" value="" style="shape=partialRectangle;html=1;whiteSpace=wrap;connectable=0;strokeColor=inherit;overflow=hidden;fillColor=none;top=0;left=0;bottom=0;right=0;pointerEvents=1;fontSize=16;" vertex="1" parent="A6QtjtSVo6RPyhmmXlHa-112">
          <mxGeometry x="45" width="22" height="21" as="geometry">
            <mxRectangle width="22" height="21" as="alternateBounds" />
          </mxGeometry>
        </mxCell>
        <mxCell id="A6QtjtSVo6RPyhmmXlHa-116" value="" style="ellipse;whiteSpace=wrap;html=1;aspect=fixed;fillColor=none;" vertex="1" parent="A6QtjtSVo6RPyhmmXlHa-102">
          <mxGeometry x="1" width="65.59" height="65.59" as="geometry" />
        </mxCell>
        <mxCell id="A6QtjtSVo6RPyhmmXlHa-117" value="" style="group" vertex="1" connectable="0" parent="n4geK9pxtCrBtXwaU8dr-59">
          <mxGeometry x="173.56" y="183" width="67.44444444444446" height="66" as="geometry" />
        </mxCell>
        <mxCell id="A6QtjtSVo6RPyhmmXlHa-118" value="" style="shape=table;startSize=0;container=1;collapsible=0;childLayout=tableLayout;fontSize=16;" vertex="1" parent="A6QtjtSVo6RPyhmmXlHa-117">
          <mxGeometry width="67.44444444444446" height="66" as="geometry" />
        </mxCell>
        <mxCell id="A6QtjtSVo6RPyhmmXlHa-119" value="" style="shape=tableRow;horizontal=0;startSize=0;swimlaneHead=0;swimlaneBody=0;strokeColor=inherit;top=0;left=0;bottom=0;right=0;collapsible=0;dropTarget=0;fillColor=none;points=[[0,0.5],[1,0.5]];portConstraint=eastwest;fontSize=16;" vertex="1" parent="A6QtjtSVo6RPyhmmXlHa-118">
          <mxGeometry width="67.44444444444446" height="22" as="geometry" />
        </mxCell>
        <mxCell id="A6QtjtSVo6RPyhmmXlHa-120" value="" style="shape=partialRectangle;html=1;whiteSpace=wrap;connectable=0;strokeColor=inherit;overflow=hidden;fillColor=none;top=0;left=0;bottom=0;right=0;pointerEvents=1;fontSize=16;" vertex="1" parent="A6QtjtSVo6RPyhmmXlHa-119">
          <mxGeometry width="22" height="22" as="geometry">
            <mxRectangle width="22" height="22" as="alternateBounds" />
          </mxGeometry>
        </mxCell>
        <mxCell id="A6QtjtSVo6RPyhmmXlHa-121" value="" style="shape=partialRectangle;html=1;whiteSpace=wrap;connectable=0;strokeColor=inherit;overflow=hidden;fillColor=none;top=0;left=0;bottom=0;right=0;pointerEvents=1;fontSize=16;" vertex="1" parent="A6QtjtSVo6RPyhmmXlHa-119">
          <mxGeometry x="22" width="23" height="22" as="geometry">
            <mxRectangle width="23" height="22" as="alternateBounds" />
          </mxGeometry>
        </mxCell>
        <mxCell id="A6QtjtSVo6RPyhmmXlHa-122" value="" style="shape=partialRectangle;html=1;whiteSpace=wrap;connectable=0;strokeColor=inherit;overflow=hidden;fillColor=none;top=0;left=0;bottom=0;right=0;pointerEvents=1;fontSize=16;" vertex="1" parent="A6QtjtSVo6RPyhmmXlHa-119">
          <mxGeometry x="45" width="22" height="22" as="geometry">
            <mxRectangle width="22" height="22" as="alternateBounds" />
          </mxGeometry>
        </mxCell>
        <mxCell id="A6QtjtSVo6RPyhmmXlHa-123" value="" style="shape=tableRow;horizontal=0;startSize=0;swimlaneHead=0;swimlaneBody=0;strokeColor=inherit;top=0;left=0;bottom=0;right=0;collapsible=0;dropTarget=0;fillColor=none;points=[[0,0.5],[1,0.5]];portConstraint=eastwest;fontSize=16;" vertex="1" parent="A6QtjtSVo6RPyhmmXlHa-118">
          <mxGeometry y="22" width="67.44444444444446" height="23" as="geometry" />
        </mxCell>
        <mxCell id="A6QtjtSVo6RPyhmmXlHa-124" value="" style="shape=partialRectangle;html=1;whiteSpace=wrap;connectable=0;strokeColor=inherit;overflow=hidden;fillColor=none;top=0;left=0;bottom=0;right=0;pointerEvents=1;fontSize=16;" vertex="1" parent="A6QtjtSVo6RPyhmmXlHa-123">
          <mxGeometry width="22" height="23" as="geometry">
            <mxRectangle width="22" height="23" as="alternateBounds" />
          </mxGeometry>
        </mxCell>
        <mxCell id="A6QtjtSVo6RPyhmmXlHa-125" value="" style="shape=partialRectangle;html=1;whiteSpace=wrap;connectable=0;strokeColor=inherit;overflow=hidden;fillColor=none;top=0;left=0;bottom=0;right=0;pointerEvents=1;fontSize=16;" vertex="1" parent="A6QtjtSVo6RPyhmmXlHa-123">
          <mxGeometry x="22" width="23" height="23" as="geometry">
            <mxRectangle width="23" height="23" as="alternateBounds" />
          </mxGeometry>
        </mxCell>
        <mxCell id="A6QtjtSVo6RPyhmmXlHa-126" value="" style="shape=partialRectangle;html=1;whiteSpace=wrap;connectable=0;strokeColor=inherit;overflow=hidden;fillColor=none;top=0;left=0;bottom=0;right=0;pointerEvents=1;fontSize=16;" vertex="1" parent="A6QtjtSVo6RPyhmmXlHa-123">
          <mxGeometry x="45" width="22" height="23" as="geometry">
            <mxRectangle width="22" height="23" as="alternateBounds" />
          </mxGeometry>
        </mxCell>
        <mxCell id="A6QtjtSVo6RPyhmmXlHa-127" value="" style="shape=tableRow;horizontal=0;startSize=0;swimlaneHead=0;swimlaneBody=0;strokeColor=inherit;top=0;left=0;bottom=0;right=0;collapsible=0;dropTarget=0;fillColor=none;points=[[0,0.5],[1,0.5]];portConstraint=eastwest;fontSize=16;" vertex="1" parent="A6QtjtSVo6RPyhmmXlHa-118">
          <mxGeometry y="45" width="67.44444444444446" height="21" as="geometry" />
        </mxCell>
        <mxCell id="A6QtjtSVo6RPyhmmXlHa-128" value="" style="shape=partialRectangle;html=1;whiteSpace=wrap;connectable=0;strokeColor=inherit;overflow=hidden;fillColor=none;top=0;left=0;bottom=0;right=0;pointerEvents=1;fontSize=16;" vertex="1" parent="A6QtjtSVo6RPyhmmXlHa-127">
          <mxGeometry width="22" height="21" as="geometry">
            <mxRectangle width="22" height="21" as="alternateBounds" />
          </mxGeometry>
        </mxCell>
        <mxCell id="A6QtjtSVo6RPyhmmXlHa-129" value="" style="shape=partialRectangle;html=1;whiteSpace=wrap;connectable=0;strokeColor=inherit;overflow=hidden;fillColor=none;top=0;left=0;bottom=0;right=0;pointerEvents=1;fontSize=16;" vertex="1" parent="A6QtjtSVo6RPyhmmXlHa-127">
          <mxGeometry x="22" width="23" height="21" as="geometry">
            <mxRectangle width="23" height="21" as="alternateBounds" />
          </mxGeometry>
        </mxCell>
        <mxCell id="A6QtjtSVo6RPyhmmXlHa-130" value="" style="shape=partialRectangle;html=1;whiteSpace=wrap;connectable=0;strokeColor=inherit;overflow=hidden;fillColor=none;top=0;left=0;bottom=0;right=0;pointerEvents=1;fontSize=16;" vertex="1" parent="A6QtjtSVo6RPyhmmXlHa-127">
          <mxGeometry x="45" width="22" height="21" as="geometry">
            <mxRectangle width="22" height="21" as="alternateBounds" />
          </mxGeometry>
        </mxCell>
        <mxCell id="A6QtjtSVo6RPyhmmXlHa-131" value="" style="ellipse;whiteSpace=wrap;html=1;aspect=fixed;fillColor=none;" vertex="1" parent="A6QtjtSVo6RPyhmmXlHa-117">
          <mxGeometry x="17.149999999999977" y="16.42999999999995" width="33.14" height="33.14" as="geometry" />
        </mxCell>
        <mxCell id="A6QtjtSVo6RPyhmmXlHa-132" value="Three-Ring Integration" style="text;html=1;align=center;verticalAlign=middle;resizable=0;points=[];autosize=1;strokeColor=none;fillColor=none;" vertex="1" parent="n4geK9pxtCrBtXwaU8dr-59">
          <mxGeometry x="148" y="46" width="138" height="26" as="geometry" />
        </mxCell>
        <mxCell id="A6QtjtSVo6RPyhmmXlHa-133" value="\( r = 1 \)&amp;nbsp;" style="text;html=1;align=center;verticalAlign=middle;resizable=0;points=[];autosize=1;strokeColor=none;fillColor=none;" vertex="1" parent="n4geK9pxtCrBtXwaU8dr-59">
          <mxGeometry x="237" y="109" width="67" height="26" as="geometry" />
        </mxCell>
        <mxCell id="A6QtjtSVo6RPyhmmXlHa-134" value="" style="group" vertex="1" connectable="0" parent="n4geK9pxtCrBtXwaU8dr-59">
          <mxGeometry x="173.56" y="89" width="67.44444444444446" height="66" as="geometry" />
        </mxCell>
        <mxCell id="A6QtjtSVo6RPyhmmXlHa-135" value="" style="shape=table;startSize=0;container=1;collapsible=0;childLayout=tableLayout;fontSize=16;" vertex="1" parent="A6QtjtSVo6RPyhmmXlHa-134">
          <mxGeometry width="67.44444444444446" height="66" as="geometry" />
        </mxCell>
        <mxCell id="A6QtjtSVo6RPyhmmXlHa-136" value="" style="shape=tableRow;horizontal=0;startSize=0;swimlaneHead=0;swimlaneBody=0;strokeColor=inherit;top=0;left=0;bottom=0;right=0;collapsible=0;dropTarget=0;fillColor=none;points=[[0,0.5],[1,0.5]];portConstraint=eastwest;fontSize=16;" vertex="1" parent="A6QtjtSVo6RPyhmmXlHa-135">
          <mxGeometry width="67.44444444444446" height="22" as="geometry" />
        </mxCell>
        <mxCell id="A6QtjtSVo6RPyhmmXlHa-137" value="" style="shape=partialRectangle;html=1;whiteSpace=wrap;connectable=0;strokeColor=inherit;overflow=hidden;fillColor=none;top=0;left=0;bottom=0;right=0;pointerEvents=1;fontSize=16;" vertex="1" parent="A6QtjtSVo6RPyhmmXlHa-136">
          <mxGeometry width="22" height="22" as="geometry">
            <mxRectangle width="22" height="22" as="alternateBounds" />
          </mxGeometry>
        </mxCell>
        <mxCell id="A6QtjtSVo6RPyhmmXlHa-138" value="" style="shape=partialRectangle;html=1;whiteSpace=wrap;connectable=0;strokeColor=inherit;overflow=hidden;fillColor=none;top=0;left=0;bottom=0;right=0;pointerEvents=1;fontSize=16;" vertex="1" parent="A6QtjtSVo6RPyhmmXlHa-136">
          <mxGeometry x="22" width="23" height="22" as="geometry">
            <mxRectangle width="23" height="22" as="alternateBounds" />
          </mxGeometry>
        </mxCell>
        <mxCell id="A6QtjtSVo6RPyhmmXlHa-139" value="" style="shape=partialRectangle;html=1;whiteSpace=wrap;connectable=0;strokeColor=inherit;overflow=hidden;fillColor=none;top=0;left=0;bottom=0;right=0;pointerEvents=1;fontSize=16;" vertex="1" parent="A6QtjtSVo6RPyhmmXlHa-136">
          <mxGeometry x="45" width="22" height="22" as="geometry">
            <mxRectangle width="22" height="22" as="alternateBounds" />
          </mxGeometry>
        </mxCell>
        <mxCell id="A6QtjtSVo6RPyhmmXlHa-140" value="" style="shape=tableRow;horizontal=0;startSize=0;swimlaneHead=0;swimlaneBody=0;strokeColor=inherit;top=0;left=0;bottom=0;right=0;collapsible=0;dropTarget=0;fillColor=none;points=[[0,0.5],[1,0.5]];portConstraint=eastwest;fontSize=16;" vertex="1" parent="A6QtjtSVo6RPyhmmXlHa-135">
          <mxGeometry y="22" width="67.44444444444446" height="23" as="geometry" />
        </mxCell>
        <mxCell id="A6QtjtSVo6RPyhmmXlHa-141" value="" style="shape=partialRectangle;html=1;whiteSpace=wrap;connectable=0;strokeColor=inherit;overflow=hidden;fillColor=none;top=0;left=0;bottom=0;right=0;pointerEvents=1;fontSize=16;" vertex="1" parent="A6QtjtSVo6RPyhmmXlHa-140">
          <mxGeometry width="22" height="23" as="geometry">
            <mxRectangle width="22" height="23" as="alternateBounds" />
          </mxGeometry>
        </mxCell>
        <mxCell id="A6QtjtSVo6RPyhmmXlHa-142" value="" style="shape=partialRectangle;html=1;whiteSpace=wrap;connectable=0;strokeColor=inherit;overflow=hidden;fillColor=none;top=0;left=0;bottom=0;right=0;pointerEvents=1;fontSize=16;" vertex="1" parent="A6QtjtSVo6RPyhmmXlHa-140">
          <mxGeometry x="22" width="23" height="23" as="geometry">
            <mxRectangle width="23" height="23" as="alternateBounds" />
          </mxGeometry>
        </mxCell>
        <mxCell id="A6QtjtSVo6RPyhmmXlHa-143" value="" style="shape=partialRectangle;html=1;whiteSpace=wrap;connectable=0;strokeColor=inherit;overflow=hidden;fillColor=none;top=0;left=0;bottom=0;right=0;pointerEvents=1;fontSize=16;" vertex="1" parent="A6QtjtSVo6RPyhmmXlHa-140">
          <mxGeometry x="45" width="22" height="23" as="geometry">
            <mxRectangle width="22" height="23" as="alternateBounds" />
          </mxGeometry>
        </mxCell>
        <mxCell id="A6QtjtSVo6RPyhmmXlHa-144" value="" style="shape=tableRow;horizontal=0;startSize=0;swimlaneHead=0;swimlaneBody=0;strokeColor=inherit;top=0;left=0;bottom=0;right=0;collapsible=0;dropTarget=0;fillColor=none;points=[[0,0.5],[1,0.5]];portConstraint=eastwest;fontSize=16;" vertex="1" parent="A6QtjtSVo6RPyhmmXlHa-135">
          <mxGeometry y="45" width="67.44444444444446" height="21" as="geometry" />
        </mxCell>
        <mxCell id="A6QtjtSVo6RPyhmmXlHa-145" value="" style="shape=partialRectangle;html=1;whiteSpace=wrap;connectable=0;strokeColor=inherit;overflow=hidden;fillColor=none;top=0;left=0;bottom=0;right=0;pointerEvents=1;fontSize=16;" vertex="1" parent="A6QtjtSVo6RPyhmmXlHa-144">
          <mxGeometry width="22" height="21" as="geometry">
            <mxRectangle width="22" height="21" as="alternateBounds" />
          </mxGeometry>
        </mxCell>
        <mxCell id="A6QtjtSVo6RPyhmmXlHa-146" value="" style="shape=partialRectangle;html=1;whiteSpace=wrap;connectable=0;strokeColor=inherit;overflow=hidden;fillColor=none;top=0;left=0;bottom=0;right=0;pointerEvents=1;fontSize=16;" vertex="1" parent="A6QtjtSVo6RPyhmmXlHa-144">
          <mxGeometry x="22" width="23" height="21" as="geometry">
            <mxRectangle width="23" height="21" as="alternateBounds" />
          </mxGeometry>
        </mxCell>
        <mxCell id="A6QtjtSVo6RPyhmmXlHa-147" value="" style="shape=partialRectangle;html=1;whiteSpace=wrap;connectable=0;strokeColor=inherit;overflow=hidden;fillColor=none;top=0;left=0;bottom=0;right=0;pointerEvents=1;fontSize=16;" vertex="1" parent="A6QtjtSVo6RPyhmmXlHa-144">
          <mxGeometry x="45" width="22" height="21" as="geometry">
            <mxRectangle width="22" height="21" as="alternateBounds" />
          </mxGeometry>
        </mxCell>
        <mxCell id="A6QtjtSVo6RPyhmmXlHa-148" value="" style="ellipse;whiteSpace=wrap;html=1;aspect=fixed;fillColor=none;" vertex="1" parent="A6QtjtSVo6RPyhmmXlHa-134">
          <mxGeometry x="22.08" y="22" width="22.64" height="22.64" as="geometry" />
        </mxCell>
        <mxCell id="A6QtjtSVo6RPyhmmXlHa-149" value="" style="line;strokeWidth=1;rotatable=0;dashed=0;labelPosition=right;align=left;verticalAlign=middle;spacingTop=0;spacingLeft=6;points=[];portConstraint=eastwest;" vertex="1" parent="n4geK9pxtCrBtXwaU8dr-59">
          <mxGeometry x="173.56" y="166" width="112.44" height="5" as="geometry" />
        </mxCell>
        <mxCell id="A6QtjtSVo6RPyhmmXlHa-150" value="\( r = 2 \)&amp;nbsp;" style="text;html=1;align=center;verticalAlign=middle;resizable=0;points=[];autosize=1;strokeColor=none;fillColor=none;" vertex="1" parent="n4geK9pxtCrBtXwaU8dr-59">
          <mxGeometry x="237" y="205" width="67" height="26" as="geometry" />
        </mxCell>
        <mxCell id="A6QtjtSVo6RPyhmmXlHa-151" value="\( r = 3 \)&amp;nbsp;" style="text;html=1;align=center;verticalAlign=middle;resizable=0;points=[];autosize=1;strokeColor=none;fillColor=none;" vertex="1" parent="n4geK9pxtCrBtXwaU8dr-59">
          <mxGeometry x="237" y="310" width="67" height="26" as="geometry" />
        </mxCell>
        <mxCell id="A6QtjtSVo6RPyhmmXlHa-152" value="\( r = 4 \)&amp;nbsp;" style="text;html=1;align=center;verticalAlign=middle;resizable=0;points=[];autosize=1;strokeColor=none;fillColor=none;" vertex="1" parent="n4geK9pxtCrBtXwaU8dr-59">
          <mxGeometry x="237" y="413" width="67" height="26" as="geometry" />
        </mxCell>
        <mxCell id="A6QtjtSVo6RPyhmmXlHa-160" value="Estimation" style="text;html=1;align=center;verticalAlign=middle;resizable=0;points=[];autosize=1;strokeColor=none;fillColor=none;" vertex="1" parent="n4geK9pxtCrBtXwaU8dr-59">
          <mxGeometry x="378" y="42" width="74" height="26" as="geometry" />
        </mxCell>
        <mxCell id="A6QtjtSVo6RPyhmmXlHa-161" value="" style="line;strokeWidth=1;rotatable=0;dashed=0;labelPosition=right;align=left;verticalAlign=middle;spacingTop=0;spacingLeft=6;points=[];portConstraint=eastwest;" vertex="1" parent="n4geK9pxtCrBtXwaU8dr-59">
          <mxGeometry x="173.56" y="264" width="112.44" height="5" as="geometry" />
        </mxCell>
        <mxCell id="A6QtjtSVo6RPyhmmXlHa-162" value="" style="line;strokeWidth=1;rotatable=0;dashed=0;labelPosition=right;align=left;verticalAlign=middle;spacingTop=0;spacingLeft=6;points=[];portConstraint=eastwest;" vertex="1" parent="n4geK9pxtCrBtXwaU8dr-59">
          <mxGeometry x="173.56" y="372" width="112.44" height="5" as="geometry" />
        </mxCell>
        <mxCell id="arwLCDTFFH7-1QNPyP1Y-1" value="" style="group" vertex="1" connectable="0" parent="n4geK9pxtCrBtXwaU8dr-59">
          <mxGeometry x="288" y="222" width="277" height="115" as="geometry" />
        </mxCell>
        <mxCell id="n4geK9pxtCrBtXwaU8dr-10" value="" style="group" vertex="1" connectable="0" parent="arwLCDTFFH7-1QNPyP1Y-1">
          <mxGeometry x="-24" y="-16.96551724137931" width="346" height="118.96551724137932" as="geometry" />
        </mxCell>
        <mxCell id="arwLCDTFFH7-1QNPyP1Y-2" value="\[ s =&amp;nbsp; \sum_{i=1}^{n}&amp;nbsp;\sum_{j=1}^{n}&amp;nbsp;p_{i,j} \text{ for } i \neq j \]" style="text;html=1;align=center;verticalAlign=middle;resizable=0;points=[];autosize=1;strokeColor=none;fillColor=none;" vertex="1" parent="n4geK9pxtCrBtXwaU8dr-10">
          <mxGeometry y="3.9655172413793105" width="346" height="26" as="geometry" />
        </mxCell>
        <mxCell id="arwLCDTFFH7-1QNPyP1Y-3" value="\[ N = n^2 -1 = \text{ size of region} \]&amp;nbsp;" style="text;html=1;align=center;verticalAlign=middle;resizable=0;points=[];autosize=1;strokeColor=none;fillColor=none;" vertex="1" parent="n4geK9pxtCrBtXwaU8dr-10">
          <mxGeometry x="82.4450867052023" y="40.64655172413793" width="216" height="26" as="geometry" />
        </mxCell>
        <mxCell id="arwLCDTFFH7-1QNPyP1Y-6" value="" style="shape=curlyBracket;whiteSpace=wrap;html=1;rounded=1;labelPosition=left;verticalLabelPosition=middle;align=right;verticalAlign=middle;" vertex="1" parent="n4geK9pxtCrBtXwaU8dr-10">
          <mxGeometry x="79.5950289017341" width="16.011560693641616" height="118.96551724137932" as="geometry" />
        </mxCell>
        <mxCell id="arwLCDTFFH7-1QNPyP1Y-4" value="\[ \text{avg} = \frac{s}{N} \]&amp;nbsp;" style="text;html=1;align=center;verticalAlign=middle;resizable=0;points=[];autosize=1;strokeColor=none;fillColor=none;" vertex="1" parent="n4geK9pxtCrBtXwaU8dr-10">
          <mxGeometry x="53.99774566473988" y="67.96241379310345" width="159" height="26" as="geometry" />
        </mxCell>
        <mxCell id="arwLCDTFFH7-1QNPyP1Y-5" value="\[ \text{est} = p_{i,i} - avg \]" style="text;html=1;align=center;verticalAlign=middle;resizable=0;points=[];autosize=1;strokeColor=none;fillColor=none;" vertex="1" parent="n4geK9pxtCrBtXwaU8dr-10">
          <mxGeometry x="71.99815028901733" y="87.96275862068967" width="158" height="26" as="geometry" />
        </mxCell>
        <mxCell id="n4geK9pxtCrBtXwaU8dr-54" value="" style="endArrow=classic;html=1;rounded=0;entryX=0;entryY=0.5;entryDx=0;entryDy=0;entryPerimeter=0;" edge="1" parent="n4geK9pxtCrBtXwaU8dr-10" target="n4geK9pxtCrBtXwaU8dr-55">
          <mxGeometry width="50" height="50" relative="1" as="geometry">
            <mxPoint x="289" y="47.9655172413793" as="sourcePoint" />
            <mxPoint x="369" y="47.9655172413793" as="targetPoint" />
          </mxGeometry>
        </mxCell>
        <mxCell id="n4geK9pxtCrBtXwaU8dr-6" value="" style="edgeStyle=elbowEdgeStyle;elbow=horizontal;endArrow=classic;html=1;curved=0;rounded=0;endSize=8;startSize=8;entryX=0.1;entryY=0.5;entryDx=0;entryDy=0;entryPerimeter=0;" edge="1" parent="n4geK9pxtCrBtXwaU8dr-59" source="A6QtjtSVo6RPyhmmXlHa-150" target="arwLCDTFFH7-1QNPyP1Y-6">
          <mxGeometry width="50" height="50" relative="1" as="geometry">
            <mxPoint x="289" y="121" as="sourcePoint" />
            <mxPoint x="423" y="267" as="targetPoint" />
            <Array as="points">
              <mxPoint x="324" y="243" />
            </Array>
          </mxGeometry>
        </mxCell>
        <mxCell id="n4geK9pxtCrBtXwaU8dr-7" value="" style="edgeStyle=elbowEdgeStyle;elbow=horizontal;endArrow=classic;html=1;curved=0;rounded=0;endSize=8;startSize=8;entryX=0.1;entryY=0.5;entryDx=0;entryDy=0;entryPerimeter=0;exitX=1.003;exitY=0.572;exitDx=0;exitDy=0;exitPerimeter=0;" edge="1" parent="n4geK9pxtCrBtXwaU8dr-59" source="A6QtjtSVo6RPyhmmXlHa-151" target="arwLCDTFFH7-1QNPyP1Y-6">
          <mxGeometry width="50" height="50" relative="1" as="geometry">
            <mxPoint x="304" y="220" as="sourcePoint" />
            <mxPoint x="423" y="269" as="targetPoint" />
          </mxGeometry>
        </mxCell>
        <mxCell id="n4geK9pxtCrBtXwaU8dr-9" value="" style="edgeStyle=elbowEdgeStyle;elbow=horizontal;endArrow=classic;html=1;curved=0;rounded=0;endSize=8;startSize=8;entryX=0.1;entryY=0.5;entryDx=0;entryDy=0;entryPerimeter=0;exitX=0.976;exitY=0.52;exitDx=0;exitDy=0;exitPerimeter=0;" edge="1" parent="n4geK9pxtCrBtXwaU8dr-59" source="A6QtjtSVo6RPyhmmXlHa-133" target="arwLCDTFFH7-1QNPyP1Y-6">
          <mxGeometry width="50" height="50" relative="1" as="geometry">
            <mxPoint x="305" y="145" as="sourcePoint" />
            <mxPoint x="423.6" y="268" as="targetPoint" />
          </mxGeometry>
        </mxCell>
        <mxCell id="n4geK9pxtCrBtXwaU8dr-8" value="" style="edgeStyle=elbowEdgeStyle;elbow=horizontal;endArrow=classic;html=1;curved=0;rounded=0;endSize=8;startSize=8;entryX=0.1;entryY=0.5;entryDx=0;entryDy=0;entryPerimeter=0;exitX=1.003;exitY=0.502;exitDx=0;exitDy=0;exitPerimeter=0;" edge="1" parent="n4geK9pxtCrBtXwaU8dr-59" source="A6QtjtSVo6RPyhmmXlHa-152" target="arwLCDTFFH7-1QNPyP1Y-6">
          <mxGeometry width="50" height="50" relative="1" as="geometry">
            <mxPoint x="303.6" y="392" as="sourcePoint" />
            <mxPoint x="422.6" y="336" as="targetPoint" />
          </mxGeometry>
        </mxCell>
        <mxCell id="n4geK9pxtCrBtXwaU8dr-11" value="Output" style="text;html=1;align=center;verticalAlign=middle;resizable=0;points=[];autosize=1;strokeColor=none;fillColor=none;" vertex="1" parent="n4geK9pxtCrBtXwaU8dr-59">
          <mxGeometry x="670.5" y="42" width="54" height="26" as="geometry" />
        </mxCell>
        <mxCell id="n4geK9pxtCrBtXwaU8dr-40" value="output" style="shape=table;startSize=21;container=1;collapsible=0;childLayout=tableLayout;strokeColor=default;fontSize=9;" vertex="1" parent="n4geK9pxtCrBtXwaU8dr-59">
          <mxGeometry x="643" y="164" width="166" height="177" as="geometry" />
        </mxCell>
        <mxCell id="n4geK9pxtCrBtXwaU8dr-41" value="" style="shape=tableRow;horizontal=0;startSize=0;swimlaneHead=0;swimlaneBody=0;strokeColor=inherit;top=0;left=0;bottom=0;right=0;collapsible=0;dropTarget=0;fillColor=none;points=[[0,0.5],[1,0.5]];portConstraint=eastwest;fontSize=16;" vertex="1" parent="n4geK9pxtCrBtXwaU8dr-40">
          <mxGeometry y="21" width="166" height="51" as="geometry" />
        </mxCell>
        <mxCell id="n4geK9pxtCrBtXwaU8dr-42" value="&lt;font style=&quot;font-size: 9px;&quot;&gt;coordinates&lt;/font&gt;" style="shape=partialRectangle;html=1;whiteSpace=wrap;connectable=0;strokeColor=inherit;overflow=hidden;fillColor=none;top=0;left=0;bottom=0;right=0;pointerEvents=1;fontSize=16;" vertex="1" parent="n4geK9pxtCrBtXwaU8dr-41">
          <mxGeometry width="56" height="51" as="geometry">
            <mxRectangle width="56" height="51" as="alternateBounds" />
          </mxGeometry>
        </mxCell>
        <mxCell id="n4geK9pxtCrBtXwaU8dr-43" value="&lt;font style=&quot;font-size: 9px;&quot;&gt;avg&lt;/font&gt;" style="shape=partialRectangle;html=1;whiteSpace=wrap;connectable=0;strokeColor=inherit;overflow=hidden;fillColor=none;top=0;left=0;bottom=0;right=0;pointerEvents=1;fontSize=16;" vertex="1" parent="n4geK9pxtCrBtXwaU8dr-41">
          <mxGeometry x="56" width="54" height="51" as="geometry">
            <mxRectangle width="54" height="51" as="alternateBounds" />
          </mxGeometry>
        </mxCell>
        <mxCell id="n4geK9pxtCrBtXwaU8dr-44" value="&lt;font size=&quot;1&quot;&gt;est&lt;/font&gt;" style="shape=partialRectangle;html=1;whiteSpace=wrap;connectable=0;strokeColor=inherit;overflow=hidden;fillColor=none;top=0;left=0;bottom=0;right=0;pointerEvents=1;fontSize=16;" vertex="1" parent="n4geK9pxtCrBtXwaU8dr-41">
          <mxGeometry x="110" width="56" height="51" as="geometry">
            <mxRectangle width="56" height="51" as="alternateBounds" />
          </mxGeometry>
        </mxCell>
        <mxCell id="n4geK9pxtCrBtXwaU8dr-45" value="" style="shape=tableRow;horizontal=0;startSize=0;swimlaneHead=0;swimlaneBody=0;strokeColor=inherit;top=0;left=0;bottom=0;right=0;collapsible=0;dropTarget=0;fillColor=none;points=[[0,0.5],[1,0.5]];portConstraint=eastwest;fontSize=16;" vertex="1" parent="n4geK9pxtCrBtXwaU8dr-40">
          <mxGeometry y="72" width="166" height="49" as="geometry" />
        </mxCell>
        <mxCell id="n4geK9pxtCrBtXwaU8dr-46" value="\[ \cdots \]" style="shape=partialRectangle;html=1;whiteSpace=wrap;connectable=0;strokeColor=inherit;overflow=hidden;fillColor=none;top=0;left=0;bottom=0;right=0;pointerEvents=1;fontSize=16;" vertex="1" parent="n4geK9pxtCrBtXwaU8dr-45">
          <mxGeometry width="56" height="49" as="geometry">
            <mxRectangle width="56" height="49" as="alternateBounds" />
          </mxGeometry>
        </mxCell>
        <mxCell id="n4geK9pxtCrBtXwaU8dr-47" value="\[ \cdots \]" style="shape=partialRectangle;html=1;whiteSpace=wrap;connectable=0;strokeColor=inherit;overflow=hidden;fillColor=none;top=0;left=0;bottom=0;right=0;pointerEvents=1;fontSize=16;" vertex="1" parent="n4geK9pxtCrBtXwaU8dr-45">
          <mxGeometry x="56" width="54" height="49" as="geometry">
            <mxRectangle width="54" height="49" as="alternateBounds" />
          </mxGeometry>
        </mxCell>
        <mxCell id="n4geK9pxtCrBtXwaU8dr-48" value="\[ \cdots \]" style="shape=partialRectangle;html=1;whiteSpace=wrap;connectable=0;strokeColor=inherit;overflow=hidden;fillColor=none;top=0;left=0;bottom=0;right=0;pointerEvents=1;fontSize=16;" vertex="1" parent="n4geK9pxtCrBtXwaU8dr-45">
          <mxGeometry x="110" width="56" height="49" as="geometry">
            <mxRectangle width="56" height="49" as="alternateBounds" />
          </mxGeometry>
        </mxCell>
        <mxCell id="n4geK9pxtCrBtXwaU8dr-49" value="" style="shape=tableRow;horizontal=0;startSize=0;swimlaneHead=0;swimlaneBody=0;strokeColor=inherit;top=0;left=0;bottom=0;right=0;collapsible=0;dropTarget=0;fillColor=none;points=[[0,0.5],[1,0.5]];portConstraint=eastwest;fontSize=16;" vertex="1" parent="n4geK9pxtCrBtXwaU8dr-40">
          <mxGeometry y="121" width="166" height="56" as="geometry" />
        </mxCell>
        <mxCell id="n4geK9pxtCrBtXwaU8dr-50" value="" style="shape=partialRectangle;html=1;whiteSpace=wrap;connectable=0;strokeColor=inherit;overflow=hidden;fillColor=none;top=0;left=0;bottom=0;right=0;pointerEvents=1;fontSize=16;" vertex="1" parent="n4geK9pxtCrBtXwaU8dr-49">
          <mxGeometry width="56" height="56" as="geometry">
            <mxRectangle width="56" height="56" as="alternateBounds" />
          </mxGeometry>
        </mxCell>
        <mxCell id="n4geK9pxtCrBtXwaU8dr-51" value="" style="shape=partialRectangle;html=1;whiteSpace=wrap;connectable=0;strokeColor=inherit;overflow=hidden;fillColor=none;top=0;left=0;bottom=0;right=0;pointerEvents=1;fontSize=16;" vertex="1" parent="n4geK9pxtCrBtXwaU8dr-49">
          <mxGeometry x="56" width="54" height="56" as="geometry">
            <mxRectangle width="54" height="56" as="alternateBounds" />
          </mxGeometry>
        </mxCell>
        <mxCell id="n4geK9pxtCrBtXwaU8dr-52" value="" style="shape=partialRectangle;html=1;whiteSpace=wrap;connectable=0;strokeColor=inherit;overflow=hidden;fillColor=none;top=0;left=0;bottom=0;right=0;pointerEvents=1;fontSize=16;" vertex="1" parent="n4geK9pxtCrBtXwaU8dr-49">
          <mxGeometry x="110" width="56" height="56" as="geometry">
            <mxRectangle width="56" height="56" as="alternateBounds" />
          </mxGeometry>
        </mxCell>
        <mxCell id="n4geK9pxtCrBtXwaU8dr-55" value="" style="strokeWidth=2;html=1;shape=mxgraph.flowchart.annotation_2;align=left;labelPosition=right;pointerEvents=1;" vertex="1" parent="n4geK9pxtCrBtXwaU8dr-59">
          <mxGeometry x="598" y="140" width="45" height="227" as="geometry" />
        </mxCell>
        <mxCell id="n4geK9pxtCrBtXwaU8dr-56" value="pd.dataframe" style="text;html=1;align=center;verticalAlign=middle;resizable=0;points=[];autosize=1;strokeColor=none;fillColor=none;" vertex="1" parent="n4geK9pxtCrBtXwaU8dr-59">
          <mxGeometry x="687.5" y="351" width="89" height="26" as="geometry" />
        </mxCell>
        <mxCell id="n4geK9pxtCrBtXwaU8dr-58" value="" style="endArrow=none;html=1;rounded=0;" edge="1" parent="n4geK9pxtCrBtXwaU8dr-59">
          <mxGeometry width="50" height="50" relative="1" as="geometry">
            <mxPoint y="69" as="sourcePoint" />
            <mxPoint x="811" y="69" as="targetPoint" />
          </mxGeometry>
        </mxCell>
      </root>
    </mxGraphModel>
  </diagram>
  <diagram id="OuLxEPMOtrQA7Ulqnweg" name="Page-2">
    <mxGraphModel dx="957" dy="675" grid="0" gridSize="10" guides="1" tooltips="1" connect="1" arrows="1" fold="1" page="1" pageScale="1" pageWidth="850" pageHeight="1100" math="1" shadow="0">
      <root>
        <mxCell id="0" />
        <mxCell id="1" parent="0" />
        <mxCell id="gWeLvDqkCD7oVaaT0KPx-47" value="&lt;span style=&quot;font-size: 12px; text-align: left; text-wrap: nowrap;&quot;&gt;Process&lt;/span&gt;" style="swimlane;childLayout=stackLayout;horizontal=1;startSize=50;horizontalStack=0;rounded=1;fontSize=14;fontStyle=0;strokeWidth=2;resizeParent=0;resizeLast=1;shadow=0;dashed=0;align=center;arcSize=4;whiteSpace=wrap;html=1;" parent="1" vertex="1">
          <mxGeometry x="575" y="309" width="196" height="384" as="geometry" />
        </mxCell>
        <mxCell id="gWeLvDqkCD7oVaaT0KPx-48" value="" style="endArrow=none;html=1;rounded=0;exitX=0.005;exitY=0.56;exitDx=0;exitDy=0;exitPerimeter=0;entryX=0.995;entryY=0.56;entryDx=0;entryDy=0;entryPerimeter=0;" parent="gWeLvDqkCD7oVaaT0KPx-47" edge="1">
          <mxGeometry width="50" height="50" relative="1" as="geometry">
            <mxPoint x="1.0499999999999545" y="139" as="sourcePoint" />
            <mxPoint x="208.95000000000005" y="139" as="targetPoint" />
          </mxGeometry>
        </mxCell>
        <mxCell id="gWeLvDqkCD7oVaaT0KPx-49" value="" style="endArrow=none;html=1;rounded=0;exitX=0.005;exitY=0.56;exitDx=0;exitDy=0;exitPerimeter=0;entryX=0.995;entryY=0.56;entryDx=0;entryDy=0;entryPerimeter=0;" parent="gWeLvDqkCD7oVaaT0KPx-47" edge="1">
          <mxGeometry width="50" height="50" relative="1" as="geometry">
            <mxPoint x="1.0499999999999545" y="156" as="sourcePoint" />
            <mxPoint x="208.95000000000005" y="156" as="targetPoint" />
          </mxGeometry>
        </mxCell>
        <mxCell id="gWeLvDqkCD7oVaaT0KPx-50" value="&lt;div&gt;&lt;b&gt;Attributes&lt;/b&gt;&lt;/div&gt;+Paths&lt;div&gt;+threshold&lt;/div&gt;&lt;div&gt;+datset_dict&lt;/div&gt;&lt;div&gt;+parameters_dict&lt;/div&gt;&lt;div&gt;&lt;br&gt;&lt;/div&gt;&lt;div&gt;&lt;b style=&quot;background-color: initial;&quot;&gt;Functions&lt;/b&gt;&lt;br&gt;&lt;/div&gt;&lt;div&gt;init_water_background()&lt;/div&gt;&lt;div&gt;select_datasets()&lt;/div&gt;&lt;div&gt;new_attribute()&lt;/div&gt;&lt;div&gt;update_attribute()&lt;/div&gt;&lt;div&gt;apply_water_background()&lt;/div&gt;&lt;div&gt;heatmap()&lt;/div&gt;&lt;div&gt;heatmap_tensor()&lt;/div&gt;&lt;div&gt;confirm_value()&lt;/div&gt;&lt;div&gt;confirm_action()&lt;/div&gt;&lt;div&gt;process_directory()&lt;/div&gt;&lt;div&gt;process_single_dataset()&lt;/div&gt;&lt;div&gt;cleanup()&lt;/div&gt;&lt;div&gt;cleanup_authenticator()&lt;/div&gt;&lt;div&gt;process_empty()&lt;/div&gt;&lt;div&gt;process_empty_single_dataset()&lt;/div&gt;&lt;div&gt;&lt;br&gt;&lt;/div&gt;&lt;div&gt;&lt;br&gt;&lt;/div&gt;" style="align=left;strokeColor=none;fillColor=none;spacingLeft=4;fontSize=12;verticalAlign=top;resizable=0;rotatable=0;part=1;html=1;" parent="gWeLvDqkCD7oVaaT0KPx-47" vertex="1">
          <mxGeometry y="50" width="196" height="334" as="geometry" />
        </mxCell>
        <mxCell id="gWeLvDqkCD7oVaaT0KPx-51" value="" style="endArrow=none;html=1;rounded=0;" parent="gWeLvDqkCD7oVaaT0KPx-47" target="gWeLvDqkCD7oVaaT0KPx-50" edge="1">
          <mxGeometry width="50" height="50" relative="1" as="geometry">
            <mxPoint y="157" as="sourcePoint" />
            <mxPoint x="129" y="157" as="targetPoint" />
          </mxGeometry>
        </mxCell>
        <mxCell id="gWeLvDqkCD7oVaaT0KPx-6" value="&lt;span style=&quot;font-size: 12px; text-align: left; text-wrap: nowrap;&quot;&gt;PathManager&lt;/span&gt;" style="swimlane;childLayout=stackLayout;horizontal=1;startSize=50;horizontalStack=0;rounded=1;fontSize=14;fontStyle=0;strokeWidth=2;resizeParent=0;resizeLast=1;shadow=0;dashed=0;align=center;arcSize=4;whiteSpace=wrap;html=1;" parent="1" vertex="1">
          <mxGeometry x="60" y="307" width="210" height="241" as="geometry" />
        </mxCell>
        <mxCell id="gWeLvDqkCD7oVaaT0KPx-7" value="&lt;div&gt;&lt;b&gt;Attributes&lt;/b&gt;&lt;/div&gt;+images_dir&lt;div&gt;+peaks_dir&lt;/div&gt;&lt;div&gt;+labels_dir&lt;/div&gt;&lt;div&gt;+peaks_water_overlay&lt;/div&gt;&lt;div&gt;+water_background_dir&lt;/div&gt;&lt;div&gt;+total_paths&lt;/div&gt;&lt;div&gt;&lt;b&gt;&lt;br&gt;&lt;/b&gt;&lt;/div&gt;&lt;div&gt;&lt;b&gt;Functions&lt;/b&gt;&lt;/div&gt;&lt;div&gt;select_datasets()&lt;/div&gt;&lt;div&gt;init_lists()&lt;/div&gt;&lt;div&gt;fetch_paths_by_type()&lt;/div&gt;&lt;div&gt;&lt;br&gt;&lt;/div&gt;&lt;div&gt;&lt;b&gt;&lt;br&gt;&lt;/b&gt;&lt;/div&gt;" style="align=left;strokeColor=none;fillColor=none;spacingLeft=4;fontSize=12;verticalAlign=top;resizable=0;rotatable=0;part=1;html=1;" parent="gWeLvDqkCD7oVaaT0KPx-6" vertex="1">
          <mxGeometry y="50" width="210" height="191" as="geometry" />
        </mxCell>
        <mxCell id="gWeLvDqkCD7oVaaT0KPx-28" value="" style="endArrow=none;html=1;rounded=0;" parent="gWeLvDqkCD7oVaaT0KPx-6" target="gWeLvDqkCD7oVaaT0KPx-7" edge="1">
          <mxGeometry width="50" height="50" relative="1" as="geometry">
            <mxPoint y="157" as="sourcePoint" />
            <mxPoint x="129" y="157" as="targetPoint" />
          </mxGeometry>
        </mxCell>
        <mxCell id="gWeLvDqkCD7oVaaT0KPx-31" value="" style="endArrow=none;html=1;rounded=0;exitX=0.005;exitY=0.56;exitDx=0;exitDy=0;exitPerimeter=0;entryX=0.995;entryY=0.56;entryDx=0;entryDy=0;entryPerimeter=0;" parent="gWeLvDqkCD7oVaaT0KPx-6" edge="1">
          <mxGeometry width="50" height="50" relative="1" as="geometry">
            <mxPoint x="-4.551914400963142e-14" y="184.00000000000003" as="sourcePoint" />
            <mxPoint x="207.90000000000003" y="184.00000000000003" as="targetPoint" />
          </mxGeometry>
        </mxCell>
        <mxCell id="gWeLvDqkCD7oVaaT0KPx-40" value="" style="endArrow=none;html=1;rounded=0;exitX=0.005;exitY=0.56;exitDx=0;exitDy=0;exitPerimeter=0;entryX=0.995;entryY=0.56;entryDx=0;entryDy=0;entryPerimeter=0;" parent="gWeLvDqkCD7oVaaT0KPx-6" edge="1">
          <mxGeometry width="50" height="50" relative="1" as="geometry">
            <mxPoint x="-4.551914400963142e-14" y="167" as="sourcePoint" />
            <mxPoint x="207.90000000000003" y="167" as="targetPoint" />
          </mxGeometry>
        </mxCell>
        <mxCell id="gWeLvDqkCD7oVaaT0KPx-8" value="pkg/" style="swimlane;childLayout=stackLayout;horizontal=1;startSize=50;horizontalStack=0;rounded=1;fontSize=14;fontStyle=0;strokeWidth=2;resizeParent=0;resizeLast=1;shadow=0;dashed=0;align=center;arcSize=4;whiteSpace=wrap;html=1;" parent="1" vertex="1">
          <mxGeometry x="358" y="50" width="154" height="176" as="geometry" />
        </mxCell>
        <mxCell id="gWeLvDqkCD7oVaaT0KPx-9" value="&lt;div&gt;__init__.py&lt;/div&gt;path.py&lt;div&gt;data.py&lt;/div&gt;&lt;div&gt;process.py&lt;/div&gt;&lt;div&gt;functions.py&lt;/div&gt;&lt;div&gt;pipe.py&lt;/div&gt;&lt;div&gt;train_eval.py&lt;/div&gt;&lt;div&gt;transform.py&lt;/div&gt;" style="align=left;strokeColor=none;fillColor=none;spacingLeft=4;fontSize=12;verticalAlign=top;resizable=0;rotatable=0;part=1;html=1;" parent="gWeLvDqkCD7oVaaT0KPx-8" vertex="1">
          <mxGeometry y="50" width="154" height="126" as="geometry" />
        </mxCell>
        <mxCell id="gWeLvDqkCD7oVaaT0KPx-22" style="edgeStyle=orthogonalEdgeStyle;rounded=0;orthogonalLoop=1;jettySize=auto;html=1;exitX=0.5;exitY=1;exitDx=0;exitDy=0;" parent="1" source="gWeLvDqkCD7oVaaT0KPx-9" target="gWeLvDqkCD7oVaaT0KPx-6" edge="1">
          <mxGeometry relative="1" as="geometry" />
        </mxCell>
        <mxCell id="gWeLvDqkCD7oVaaT0KPx-24" style="edgeStyle=orthogonalEdgeStyle;rounded=0;orthogonalLoop=1;jettySize=auto;html=1;exitX=0.5;exitY=1;exitDx=0;exitDy=0;entryX=0.5;entryY=0;entryDx=0;entryDy=0;" parent="1" source="gWeLvDqkCD7oVaaT0KPx-9" target="gWeLvDqkCD7oVaaT0KPx-47" edge="1">
          <mxGeometry relative="1" as="geometry">
            <mxPoint x="659" y="310" as="targetPoint" />
          </mxGeometry>
        </mxCell>
        <mxCell id="gWeLvDqkCD7oVaaT0KPx-33" value="&lt;span style=&quot;font-size: 12px; text-align: left; text-wrap: nowrap;&quot;&gt;DatasetManager&lt;/span&gt;" style="swimlane;childLayout=stackLayout;horizontal=1;startSize=50;horizontalStack=0;rounded=1;fontSize=14;fontStyle=0;strokeWidth=2;resizeParent=0;resizeLast=1;shadow=0;dashed=0;align=center;arcSize=4;whiteSpace=wrap;html=1;" parent="1" vertex="1">
          <mxGeometry x="330" y="309" width="210" height="241" as="geometry" />
        </mxCell>
        <mxCell id="gWeLvDqkCD7oVaaT0KPx-42" value="" style="endArrow=none;html=1;rounded=0;exitX=0.005;exitY=0.56;exitDx=0;exitDy=0;exitPerimeter=0;entryX=0.995;entryY=0.56;entryDx=0;entryDy=0;entryPerimeter=0;" parent="gWeLvDqkCD7oVaaT0KPx-33" edge="1">
          <mxGeometry width="50" height="50" relative="1" as="geometry">
            <mxPoint x="1.0499999999999545" y="139" as="sourcePoint" />
            <mxPoint x="208.95000000000005" y="139" as="targetPoint" />
          </mxGeometry>
        </mxCell>
        <mxCell id="gWeLvDqkCD7oVaaT0KPx-41" value="" style="endArrow=none;html=1;rounded=0;exitX=0.005;exitY=0.56;exitDx=0;exitDy=0;exitPerimeter=0;entryX=0.995;entryY=0.56;entryDx=0;entryDy=0;entryPerimeter=0;" parent="gWeLvDqkCD7oVaaT0KPx-33" edge="1">
          <mxGeometry width="50" height="50" relative="1" as="geometry">
            <mxPoint x="1.0499999999999545" y="156" as="sourcePoint" />
            <mxPoint x="208.95000000000005" y="156" as="targetPoint" />
          </mxGeometry>
        </mxCell>
        <mxCell id="gWeLvDqkCD7oVaaT0KPx-35" value="&lt;div&gt;&lt;b&gt;Attributes&lt;/b&gt;&lt;/div&gt;+Paths&lt;div&gt;+datasets&lt;/div&gt;&lt;div&gt;+parameters&lt;/div&gt;&lt;div&gt;+transform&lt;/div&gt;&lt;div&gt;&lt;br&gt;&lt;/div&gt;&lt;div&gt;&lt;b&gt;Functions&lt;/b&gt;&lt;/div&gt;&lt;div&gt;setup_datasets()&lt;/div&gt;&lt;div&gt;__len__()&lt;/div&gt;&lt;div&gt;__getitem__()&lt;/div&gt;&lt;div&gt;authenticate_attributes()&lt;/div&gt;&lt;div&gt;count_empty_images()&lt;/div&gt;&lt;div&gt;&lt;br&gt;&lt;/div&gt;&lt;div&gt;&lt;br&gt;&lt;/div&gt;" style="align=left;strokeColor=none;fillColor=none;spacingLeft=4;fontSize=12;verticalAlign=top;resizable=0;rotatable=0;part=1;html=1;" parent="gWeLvDqkCD7oVaaT0KPx-33" vertex="1">
          <mxGeometry y="50" width="210" height="191" as="geometry" />
        </mxCell>
        <mxCell id="gWeLvDqkCD7oVaaT0KPx-36" value="" style="endArrow=none;html=1;rounded=0;" parent="gWeLvDqkCD7oVaaT0KPx-33" target="gWeLvDqkCD7oVaaT0KPx-35" edge="1">
          <mxGeometry width="50" height="50" relative="1" as="geometry">
            <mxPoint y="157" as="sourcePoint" />
            <mxPoint x="129" y="157" as="targetPoint" />
          </mxGeometry>
        </mxCell>
        <mxCell id="gWeLvDqkCD7oVaaT0KPx-39" style="edgeStyle=orthogonalEdgeStyle;rounded=0;orthogonalLoop=1;jettySize=auto;html=1;entryX=0;entryY=0.25;entryDx=0;entryDy=0;" parent="1" source="gWeLvDqkCD7oVaaT0KPx-7" target="gWeLvDqkCD7oVaaT0KPx-35" edge="1">
          <mxGeometry relative="1" as="geometry" />
        </mxCell>
        <mxCell id="gWeLvDqkCD7oVaaT0KPx-52" style="edgeStyle=orthogonalEdgeStyle;rounded=0;orthogonalLoop=1;jettySize=auto;html=1;exitX=0.5;exitY=1;exitDx=0;exitDy=0;entryX=0.5;entryY=0;entryDx=0;entryDy=0;" parent="1" source="gWeLvDqkCD7oVaaT0KPx-9" target="gWeLvDqkCD7oVaaT0KPx-33" edge="1">
          <mxGeometry relative="1" as="geometry" />
        </mxCell>
        <mxCell id="gWeLvDqkCD7oVaaT0KPx-53" style="edgeStyle=orthogonalEdgeStyle;rounded=0;orthogonalLoop=1;jettySize=auto;html=1;exitX=1;exitY=0.5;exitDx=0;exitDy=0;entryX=0.5;entryY=1;entryDx=0;entryDy=0;" parent="1" source="gWeLvDqkCD7oVaaT0KPx-7" target="gWeLvDqkCD7oVaaT0KPx-47" edge="1">
          <mxGeometry relative="1" as="geometry">
            <Array as="points">
              <mxPoint x="300" y="453" />
              <mxPoint x="300" y="753" />
              <mxPoint x="674" y="753" />
            </Array>
          </mxGeometry>
        </mxCell>
      </root>
    </mxGraphModel>
  </diagram>
  <diagram id="QwNMvMmSuQ0_7oQI_kph" name="Page-3">
    <mxGraphModel dx="1244" dy="878" grid="0" gridSize="10" guides="1" tooltips="1" connect="1" arrows="1" fold="1" page="1" pageScale="1" pageWidth="850" pageHeight="1100" math="0" shadow="0">
      <root>
        <mxCell id="0" />
        <mxCell id="1" parent="0" />
        <mxCell id="oI86Z09EwT27M6YB8Cae-1" value="" style="rounded=0;whiteSpace=wrap;html=1;" vertex="1" parent="1">
          <mxGeometry x="162" y="555" width="488" height="249" as="geometry" />
        </mxCell>
        <mxCell id="oI86Z09EwT27M6YB8Cae-2" value="" style="shape=table;startSize=0;container=1;collapsible=0;childLayout=tableLayout;fontSize=16;" vertex="1" parent="1">
          <mxGeometry x="267" y="617" width="382" height="187" as="geometry" />
        </mxCell>
        <mxCell id="oI86Z09EwT27M6YB8Cae-3" value="" style="shape=tableRow;horizontal=0;startSize=0;swimlaneHead=0;swimlaneBody=0;strokeColor=inherit;top=0;left=0;bottom=0;right=0;collapsible=0;dropTarget=0;fillColor=none;points=[[0,0.5],[1,0.5]];portConstraint=eastwest;fontSize=16;" vertex="1" parent="oI86Z09EwT27M6YB8Cae-2">
          <mxGeometry width="382" height="62" as="geometry" />
        </mxCell>
        <mxCell id="oI86Z09EwT27M6YB8Cae-4" value="&quot;01&quot; = (0.15, 6)" style="shape=partialRectangle;html=1;whiteSpace=wrap;connectable=0;strokeColor=inherit;overflow=hidden;fillColor=none;top=0;left=0;bottom=0;right=0;pointerEvents=1;fontSize=16;" vertex="1" parent="oI86Z09EwT27M6YB8Cae-3">
          <mxGeometry width="127" height="62" as="geometry">
            <mxRectangle width="127" height="62" as="alternateBounds" />
          </mxGeometry>
        </mxCell>
        <mxCell id="oI86Z09EwT27M6YB8Cae-5" value="&quot;02&quot; = (0.15, 7)" style="shape=partialRectangle;html=1;whiteSpace=wrap;connectable=0;strokeColor=inherit;overflow=hidden;fillColor=none;top=0;left=0;bottom=0;right=0;pointerEvents=1;fontSize=16;" vertex="1" parent="oI86Z09EwT27M6YB8Cae-3">
          <mxGeometry x="127" width="128" height="62" as="geometry">
            <mxRectangle width="128" height="62" as="alternateBounds" />
          </mxGeometry>
        </mxCell>
        <mxCell id="oI86Z09EwT27M6YB8Cae-6" value="&quot;03&quot; = (0.15, 8)" style="shape=partialRectangle;html=1;whiteSpace=wrap;connectable=0;strokeColor=inherit;overflow=hidden;fillColor=none;top=0;left=0;bottom=0;right=0;pointerEvents=1;fontSize=16;" vertex="1" parent="oI86Z09EwT27M6YB8Cae-3">
          <mxGeometry x="255" width="127" height="62" as="geometry">
            <mxRectangle width="127" height="62" as="alternateBounds" />
          </mxGeometry>
        </mxCell>
        <mxCell id="oI86Z09EwT27M6YB8Cae-7" value="" style="shape=tableRow;horizontal=0;startSize=0;swimlaneHead=0;swimlaneBody=0;strokeColor=inherit;top=0;left=0;bottom=0;right=0;collapsible=0;dropTarget=0;fillColor=none;points=[[0,0.5],[1,0.5]];portConstraint=eastwest;fontSize=16;" vertex="1" parent="oI86Z09EwT27M6YB8Cae-2">
          <mxGeometry y="62" width="382" height="59" as="geometry" />
        </mxCell>
        <mxCell id="oI86Z09EwT27M6YB8Cae-8" value="&quot;04&quot; = (0.25, 6)" style="shape=partialRectangle;html=1;whiteSpace=wrap;connectable=0;strokeColor=inherit;overflow=hidden;fillColor=none;top=0;left=0;bottom=0;right=0;pointerEvents=1;fontSize=16;" vertex="1" parent="oI86Z09EwT27M6YB8Cae-7">
          <mxGeometry width="127" height="59" as="geometry">
            <mxRectangle width="127" height="59" as="alternateBounds" />
          </mxGeometry>
        </mxCell>
        <mxCell id="oI86Z09EwT27M6YB8Cae-9" value="&quot;05&quot; = (0.25, 7)" style="shape=partialRectangle;html=1;whiteSpace=wrap;connectable=0;strokeColor=inherit;overflow=hidden;fillColor=none;top=0;left=0;bottom=0;right=0;pointerEvents=1;fontSize=16;" vertex="1" parent="oI86Z09EwT27M6YB8Cae-7">
          <mxGeometry x="127" width="128" height="59" as="geometry">
            <mxRectangle width="128" height="59" as="alternateBounds" />
          </mxGeometry>
        </mxCell>
        <mxCell id="oI86Z09EwT27M6YB8Cae-10" value="&quot;06&quot; = (0.25, 8)" style="shape=partialRectangle;html=1;whiteSpace=wrap;connectable=0;strokeColor=inherit;overflow=hidden;fillColor=none;top=0;left=0;bottom=0;right=0;pointerEvents=1;fontSize=16;" vertex="1" parent="oI86Z09EwT27M6YB8Cae-7">
          <mxGeometry x="255" width="127" height="59" as="geometry">
            <mxRectangle width="127" height="59" as="alternateBounds" />
          </mxGeometry>
        </mxCell>
        <mxCell id="oI86Z09EwT27M6YB8Cae-11" value="" style="shape=tableRow;horizontal=0;startSize=0;swimlaneHead=0;swimlaneBody=0;strokeColor=inherit;top=0;left=0;bottom=0;right=0;collapsible=0;dropTarget=0;fillColor=none;points=[[0,0.5],[1,0.5]];portConstraint=eastwest;fontSize=16;" vertex="1" parent="oI86Z09EwT27M6YB8Cae-2">
          <mxGeometry y="121" width="382" height="66" as="geometry" />
        </mxCell>
        <mxCell id="oI86Z09EwT27M6YB8Cae-12" value="&quot;07&quot; = (0.35, 6)" style="shape=partialRectangle;html=1;whiteSpace=wrap;connectable=0;strokeColor=inherit;overflow=hidden;fillColor=none;top=0;left=0;bottom=0;right=0;pointerEvents=1;fontSize=16;" vertex="1" parent="oI86Z09EwT27M6YB8Cae-11">
          <mxGeometry width="127" height="66" as="geometry">
            <mxRectangle width="127" height="66" as="alternateBounds" />
          </mxGeometry>
        </mxCell>
        <mxCell id="oI86Z09EwT27M6YB8Cae-13" value="&quot;08&quot; = (0.35, 7)" style="shape=partialRectangle;html=1;whiteSpace=wrap;connectable=0;strokeColor=inherit;overflow=hidden;fillColor=none;top=0;left=0;bottom=0;right=0;pointerEvents=1;fontSize=16;" vertex="1" parent="oI86Z09EwT27M6YB8Cae-11">
          <mxGeometry x="127" width="128" height="66" as="geometry">
            <mxRectangle width="128" height="66" as="alternateBounds" />
          </mxGeometry>
        </mxCell>
        <mxCell id="oI86Z09EwT27M6YB8Cae-14" value="&quot;09&quot; = (0.35, 8)" style="shape=partialRectangle;html=1;whiteSpace=wrap;connectable=0;strokeColor=inherit;overflow=hidden;fillColor=none;top=0;left=0;bottom=0;right=0;pointerEvents=1;fontSize=16;" vertex="1" parent="oI86Z09EwT27M6YB8Cae-11">
          <mxGeometry x="255" width="127" height="66" as="geometry">
            <mxRectangle width="127" height="66" as="alternateBounds" />
          </mxGeometry>
        </mxCell>
        <mxCell id="oI86Z09EwT27M6YB8Cae-15" value="&lt;font style=&quot;font-size: 14px;&quot;&gt;Camera Length (m)&amp;nbsp;&lt;/font&gt;&lt;div&gt;&lt;font style=&quot;font-size: 14px;&quot;&gt;(&quot;clen&quot;)&lt;/font&gt;&lt;/div&gt;" style="text;html=1;align=center;verticalAlign=middle;resizable=0;points=[];autosize=1;strokeColor=none;fillColor=none;rotation=-90;" vertex="1" parent="1">
          <mxGeometry x="115" y="687.5" width="143" height="46" as="geometry" />
        </mxCell>
        <mxCell id="oI86Z09EwT27M6YB8Cae-16" value="&lt;font style=&quot;font-size: 14px;&quot;&gt;Photon Energy (keV)&amp;nbsp;&lt;span style=&quot;background-color: initial;&quot;&gt;(&quot;photon_energy&quot;)&lt;/span&gt;&lt;/font&gt;" style="text;html=1;align=center;verticalAlign=middle;resizable=0;points=[];autosize=1;strokeColor=none;fillColor=none;rotation=0;" vertex="1" parent="1">
          <mxGeometry x="258" y="557" width="265" height="29" as="geometry" />
        </mxCell>
        <mxCell id="oI86Z09EwT27M6YB8Cae-17" value="&lt;font style=&quot;font-size: 14px;&quot;&gt;Dataset Layout&lt;/font&gt;" style="text;strokeColor=none;fillColor=none;html=1;fontSize=24;fontStyle=1;verticalAlign=middle;align=center;" vertex="1" parent="1">
          <mxGeometry x="356" y="489" width="100" height="76" as="geometry" />
        </mxCell>
        <mxCell id="oI86Z09EwT27M6YB8Cae-18" value="&lt;font style=&quot;font-size: 14px;&quot;&gt;clen01&lt;/font&gt;" style="text;html=1;align=center;verticalAlign=middle;resizable=0;points=[];autosize=1;strokeColor=none;fillColor=none;" vertex="1" parent="1">
          <mxGeometry x="209" y="635" width="59" height="29" as="geometry" />
        </mxCell>
        <mxCell id="oI86Z09EwT27M6YB8Cae-19" value="&lt;font style=&quot;font-size: 14px;&quot;&gt;clen02&lt;/font&gt;" style="text;html=1;align=center;verticalAlign=middle;resizable=0;points=[];autosize=1;strokeColor=none;fillColor=none;" vertex="1" parent="1">
          <mxGeometry x="208" y="692" width="59" height="29" as="geometry" />
        </mxCell>
        <mxCell id="oI86Z09EwT27M6YB8Cae-20" value="&lt;span style=&quot;color: rgb(0, 0, 0); font-family: Helvetica; font-size: 12px; font-style: normal; font-variant-ligatures: normal; font-variant-caps: normal; font-weight: 400; letter-spacing: normal; orphans: 2; text-align: center; text-indent: 0px; text-transform: none; widows: 2; word-spacing: 0px; -webkit-text-stroke-width: 0px; white-space: nowrap; background-color: rgb(251, 251, 251); text-decoration-thickness: initial; text-decoration-style: initial; text-decoration-color: initial; display: inline !important; float: none;&quot;&gt;photon_energy01&lt;/span&gt;" style="text;whiteSpace=wrap;html=1;" vertex="1" parent="1">
          <mxGeometry x="277" y="590.5" width="108" height="36" as="geometry" />
        </mxCell>
        <mxCell id="oI86Z09EwT27M6YB8Cae-21" value="&lt;span style=&quot;color: rgb(0, 0, 0); font-family: Helvetica; font-size: 12px; font-style: normal; font-variant-ligatures: normal; font-variant-caps: normal; font-weight: 400; letter-spacing: normal; orphans: 2; text-align: center; text-indent: 0px; text-transform: none; widows: 2; word-spacing: 0px; -webkit-text-stroke-width: 0px; white-space: nowrap; background-color: rgb(251, 251, 251); text-decoration-thickness: initial; text-decoration-style: initial; text-decoration-color: initial; display: inline !important; float: none;&quot;&gt;photon_energy03&lt;/span&gt;" style="text;whiteSpace=wrap;html=1;" vertex="1" parent="1">
          <mxGeometry x="407" y="590.5" width="121" height="36" as="geometry" />
        </mxCell>
        <mxCell id="oI86Z09EwT27M6YB8Cae-22" value="&lt;span style=&quot;color: rgb(0, 0, 0); font-family: Helvetica; font-size: 12px; font-style: normal; font-variant-ligatures: normal; font-variant-caps: normal; font-weight: 400; letter-spacing: normal; orphans: 2; text-align: center; text-indent: 0px; text-transform: none; widows: 2; word-spacing: 0px; -webkit-text-stroke-width: 0px; white-space: nowrap; background-color: rgb(251, 251, 251); text-decoration-thickness: initial; text-decoration-style: initial; text-decoration-color: initial; display: inline !important; float: none;&quot;&gt;photon_energy03&lt;/span&gt;" style="text;whiteSpace=wrap;html=1;" vertex="1" parent="1">
          <mxGeometry x="531" y="590.5" width="121" height="36" as="geometry" />
        </mxCell>
        <mxCell id="oI86Z09EwT27M6YB8Cae-23" value="&lt;span style=&quot;color: rgb(0, 0, 0); font-family: Helvetica; font-size: 14px; font-style: normal; font-variant-ligatures: normal; font-variant-caps: normal; font-weight: 400; letter-spacing: normal; orphans: 2; text-align: center; text-indent: 0px; text-transform: none; widows: 2; word-spacing: 0px; -webkit-text-stroke-width: 0px; white-space: nowrap; background-color: rgb(251, 251, 251); text-decoration-thickness: initial; text-decoration-style: initial; text-decoration-color: initial; display: inline !important; float: none;&quot;&gt;clen03&lt;/span&gt;" style="text;whiteSpace=wrap;html=1;" vertex="1" parent="1">
          <mxGeometry x="216" y="757" width="69" height="39" as="geometry" />
        </mxCell>
        <mxCell id="oI86Z09EwT27M6YB8Cae-24" value="" style="endArrow=none;dashed=1;html=1;dashPattern=1 3;strokeWidth=2;rounded=0;exitX=-0.003;exitY=0.048;exitDx=0;exitDy=0;exitPerimeter=0;entryX=0;entryY=0;entryDx=0;entryDy=0;" edge="1" parent="1" source="oI86Z09EwT27M6YB8Cae-3" target="oI86Z09EwT27M6YB8Cae-1">
          <mxGeometry width="50" height="50" relative="1" as="geometry">
            <mxPoint x="447" y="744" as="sourcePoint" />
            <mxPoint x="497" y="694" as="targetPoint" />
          </mxGeometry>
        </mxCell>
        <mxCell id="lafihpjmT2SEwCijQc9G-27" value="" style="group" vertex="1" connectable="0" parent="1">
          <mxGeometry x="160" y="140" width="490" height="315" as="geometry" />
        </mxCell>
        <mxCell id="lafihpjmT2SEwCijQc9G-28" value="&lt;font style=&quot;font-size: 14px;&quot;&gt;Dataset Layout&lt;/font&gt;" style="text;strokeColor=none;fillColor=none;html=1;fontSize=24;fontStyle=1;verticalAlign=middle;align=center;" vertex="1" parent="lafihpjmT2SEwCijQc9G-27">
          <mxGeometry x="221" width="100" height="76" as="geometry" />
        </mxCell>
        <mxCell id="lafihpjmT2SEwCijQc9G-29" value="" style="group" vertex="1" connectable="0" parent="lafihpjmT2SEwCijQc9G-27">
          <mxGeometry y="66" width="490" height="249" as="geometry" />
        </mxCell>
        <mxCell id="lafihpjmT2SEwCijQc9G-30" value="" style="rounded=0;whiteSpace=wrap;html=1;" vertex="1" parent="lafihpjmT2SEwCijQc9G-29">
          <mxGeometry width="488" height="249" as="geometry" />
        </mxCell>
        <mxCell id="lafihpjmT2SEwCijQc9G-31" value="" style="shape=table;startSize=0;container=1;collapsible=0;childLayout=tableLayout;fontSize=16;" vertex="1" parent="lafihpjmT2SEwCijQc9G-29">
          <mxGeometry x="106" y="62" width="382" height="187" as="geometry" />
        </mxCell>
        <mxCell id="lafihpjmT2SEwCijQc9G-32" value="" style="shape=tableRow;horizontal=0;startSize=0;swimlaneHead=0;swimlaneBody=0;strokeColor=inherit;top=0;left=0;bottom=0;right=0;collapsible=0;dropTarget=0;fillColor=none;points=[[0,0.5],[1,0.5]];portConstraint=eastwest;fontSize=16;" vertex="1" parent="lafihpjmT2SEwCijQc9G-31">
          <mxGeometry width="382" height="62" as="geometry" />
        </mxCell>
        <mxCell id="lafihpjmT2SEwCijQc9G-33" value="&quot;01&quot; = (0.15, 6)" style="shape=partialRectangle;html=1;whiteSpace=wrap;connectable=0;strokeColor=inherit;overflow=hidden;fillColor=none;top=0;left=0;bottom=0;right=0;pointerEvents=1;fontSize=16;" vertex="1" parent="lafihpjmT2SEwCijQc9G-32">
          <mxGeometry width="127" height="62" as="geometry">
            <mxRectangle width="127" height="62" as="alternateBounds" />
          </mxGeometry>
        </mxCell>
        <mxCell id="lafihpjmT2SEwCijQc9G-34" value="&quot;02&quot; = (0.15, 7)" style="shape=partialRectangle;html=1;whiteSpace=wrap;connectable=0;strokeColor=inherit;overflow=hidden;fillColor=none;top=0;left=0;bottom=0;right=0;pointerEvents=1;fontSize=16;" vertex="1" parent="lafihpjmT2SEwCijQc9G-32">
          <mxGeometry x="127" width="128" height="62" as="geometry">
            <mxRectangle width="128" height="62" as="alternateBounds" />
          </mxGeometry>
        </mxCell>
        <mxCell id="lafihpjmT2SEwCijQc9G-35" value="&quot;03&quot; = (0.15, 8)" style="shape=partialRectangle;html=1;whiteSpace=wrap;connectable=0;strokeColor=inherit;overflow=hidden;fillColor=none;top=0;left=0;bottom=0;right=0;pointerEvents=1;fontSize=16;" vertex="1" parent="lafihpjmT2SEwCijQc9G-32">
          <mxGeometry x="255" width="127" height="62" as="geometry">
            <mxRectangle width="127" height="62" as="alternateBounds" />
          </mxGeometry>
        </mxCell>
        <mxCell id="lafihpjmT2SEwCijQc9G-36" value="" style="shape=tableRow;horizontal=0;startSize=0;swimlaneHead=0;swimlaneBody=0;strokeColor=inherit;top=0;left=0;bottom=0;right=0;collapsible=0;dropTarget=0;fillColor=none;points=[[0,0.5],[1,0.5]];portConstraint=eastwest;fontSize=16;" vertex="1" parent="lafihpjmT2SEwCijQc9G-31">
          <mxGeometry y="62" width="382" height="59" as="geometry" />
        </mxCell>
        <mxCell id="lafihpjmT2SEwCijQc9G-37" value="&quot;04&quot; = (0.25, 6)" style="shape=partialRectangle;html=1;whiteSpace=wrap;connectable=0;strokeColor=inherit;overflow=hidden;fillColor=none;top=0;left=0;bottom=0;right=0;pointerEvents=1;fontSize=16;" vertex="1" parent="lafihpjmT2SEwCijQc9G-36">
          <mxGeometry width="127" height="59" as="geometry">
            <mxRectangle width="127" height="59" as="alternateBounds" />
          </mxGeometry>
        </mxCell>
        <mxCell id="lafihpjmT2SEwCijQc9G-38" value="&quot;05&quot; = (0.25, 7)" style="shape=partialRectangle;html=1;whiteSpace=wrap;connectable=0;strokeColor=inherit;overflow=hidden;fillColor=none;top=0;left=0;bottom=0;right=0;pointerEvents=1;fontSize=16;" vertex="1" parent="lafihpjmT2SEwCijQc9G-36">
          <mxGeometry x="127" width="128" height="59" as="geometry">
            <mxRectangle width="128" height="59" as="alternateBounds" />
          </mxGeometry>
        </mxCell>
        <mxCell id="lafihpjmT2SEwCijQc9G-39" value="&quot;06&quot; = (0.25, 8)" style="shape=partialRectangle;html=1;whiteSpace=wrap;connectable=0;strokeColor=inherit;overflow=hidden;fillColor=none;top=0;left=0;bottom=0;right=0;pointerEvents=1;fontSize=16;" vertex="1" parent="lafihpjmT2SEwCijQc9G-36">
          <mxGeometry x="255" width="127" height="59" as="geometry">
            <mxRectangle width="127" height="59" as="alternateBounds" />
          </mxGeometry>
        </mxCell>
        <mxCell id="lafihpjmT2SEwCijQc9G-40" value="" style="shape=tableRow;horizontal=0;startSize=0;swimlaneHead=0;swimlaneBody=0;strokeColor=inherit;top=0;left=0;bottom=0;right=0;collapsible=0;dropTarget=0;fillColor=none;points=[[0,0.5],[1,0.5]];portConstraint=eastwest;fontSize=16;" vertex="1" parent="lafihpjmT2SEwCijQc9G-31">
          <mxGeometry y="121" width="382" height="66" as="geometry" />
        </mxCell>
        <mxCell id="lafihpjmT2SEwCijQc9G-41" value="&quot;07&quot; = (0.35, 6)" style="shape=partialRectangle;html=1;whiteSpace=wrap;connectable=0;strokeColor=inherit;overflow=hidden;fillColor=none;top=0;left=0;bottom=0;right=0;pointerEvents=1;fontSize=16;" vertex="1" parent="lafihpjmT2SEwCijQc9G-40">
          <mxGeometry width="127" height="66" as="geometry">
            <mxRectangle width="127" height="66" as="alternateBounds" />
          </mxGeometry>
        </mxCell>
        <mxCell id="lafihpjmT2SEwCijQc9G-42" value="&quot;08&quot; = (0.35, 7)" style="shape=partialRectangle;html=1;whiteSpace=wrap;connectable=0;strokeColor=inherit;overflow=hidden;fillColor=none;top=0;left=0;bottom=0;right=0;pointerEvents=1;fontSize=16;" vertex="1" parent="lafihpjmT2SEwCijQc9G-40">
          <mxGeometry x="127" width="128" height="66" as="geometry">
            <mxRectangle width="128" height="66" as="alternateBounds" />
          </mxGeometry>
        </mxCell>
        <mxCell id="lafihpjmT2SEwCijQc9G-43" value="&quot;09&quot; = (0.35, 8)" style="shape=partialRectangle;html=1;whiteSpace=wrap;connectable=0;strokeColor=inherit;overflow=hidden;fillColor=none;top=0;left=0;bottom=0;right=0;pointerEvents=1;fontSize=16;" vertex="1" parent="lafihpjmT2SEwCijQc9G-40">
          <mxGeometry x="255" width="127" height="66" as="geometry">
            <mxRectangle width="127" height="66" as="alternateBounds" />
          </mxGeometry>
        </mxCell>
        <mxCell id="lafihpjmT2SEwCijQc9G-44" value="&lt;font style=&quot;font-size: 14px;&quot;&gt;Camera Length (m)&amp;nbsp;&lt;/font&gt;&lt;div&gt;&lt;font style=&quot;font-size: 14px;&quot;&gt;(&quot;clen&quot;)&lt;/font&gt;&lt;/div&gt;" style="text;html=1;align=center;verticalAlign=middle;resizable=0;points=[];autosize=1;strokeColor=none;fillColor=none;rotation=-90;" vertex="1" parent="lafihpjmT2SEwCijQc9G-29">
          <mxGeometry x="-46" y="132.5" width="143" height="46" as="geometry" />
        </mxCell>
        <mxCell id="lafihpjmT2SEwCijQc9G-45" value="&lt;font style=&quot;font-size: 14px;&quot;&gt;Photon Energy (keV)&amp;nbsp;&lt;span style=&quot;background-color: initial;&quot;&gt;(&quot;photon_energy&quot;)&lt;/span&gt;&lt;/font&gt;" style="text;html=1;align=center;verticalAlign=middle;resizable=0;points=[];autosize=1;strokeColor=none;fillColor=none;rotation=0;" vertex="1" parent="lafihpjmT2SEwCijQc9G-29">
          <mxGeometry x="97" y="2" width="265" height="29" as="geometry" />
        </mxCell>
        <mxCell id="lafihpjmT2SEwCijQc9G-46" value="&lt;font style=&quot;font-size: 14px;&quot;&gt;clen01&lt;/font&gt;" style="text;html=1;align=center;verticalAlign=middle;resizable=0;points=[];autosize=1;strokeColor=none;fillColor=none;" vertex="1" parent="lafihpjmT2SEwCijQc9G-29">
          <mxGeometry x="48" y="80" width="59" height="29" as="geometry" />
        </mxCell>
        <mxCell id="lafihpjmT2SEwCijQc9G-47" value="&lt;font style=&quot;font-size: 14px;&quot;&gt;clen02&lt;/font&gt;" style="text;html=1;align=center;verticalAlign=middle;resizable=0;points=[];autosize=1;strokeColor=none;fillColor=none;" vertex="1" parent="lafihpjmT2SEwCijQc9G-29">
          <mxGeometry x="47" y="137" width="59" height="29" as="geometry" />
        </mxCell>
        <mxCell id="lafihpjmT2SEwCijQc9G-48" value="&lt;span style=&quot;color: rgb(0, 0, 0); font-family: Helvetica; font-size: 12px; font-style: normal; font-variant-ligatures: normal; font-variant-caps: normal; font-weight: 400; letter-spacing: normal; orphans: 2; text-align: center; text-indent: 0px; text-transform: none; widows: 2; word-spacing: 0px; -webkit-text-stroke-width: 0px; white-space: nowrap; background-color: rgb(251, 251, 251); text-decoration-thickness: initial; text-decoration-style: initial; text-decoration-color: initial; display: inline !important; float: none;&quot;&gt;photon_energy01&lt;/span&gt;" style="text;whiteSpace=wrap;html=1;" vertex="1" parent="lafihpjmT2SEwCijQc9G-29">
          <mxGeometry x="116" y="35.5" width="108" height="36" as="geometry" />
        </mxCell>
        <mxCell id="lafihpjmT2SEwCijQc9G-49" value="&lt;span style=&quot;color: rgb(0, 0, 0); font-family: Helvetica; font-size: 12px; font-style: normal; font-variant-ligatures: normal; font-variant-caps: normal; font-weight: 400; letter-spacing: normal; orphans: 2; text-align: center; text-indent: 0px; text-transform: none; widows: 2; word-spacing: 0px; -webkit-text-stroke-width: 0px; white-space: nowrap; background-color: rgb(251, 251, 251); text-decoration-thickness: initial; text-decoration-style: initial; text-decoration-color: initial; display: inline !important; float: none;&quot;&gt;photon_energy03&lt;/span&gt;" style="text;whiteSpace=wrap;html=1;" vertex="1" parent="lafihpjmT2SEwCijQc9G-29">
          <mxGeometry x="246" y="36" width="121" height="35.5" as="geometry" />
        </mxCell>
        <mxCell id="lafihpjmT2SEwCijQc9G-50" value="&lt;span style=&quot;color: rgb(0, 0, 0); font-family: Helvetica; font-size: 12px; font-style: normal; font-variant-ligatures: normal; font-variant-caps: normal; font-weight: 400; letter-spacing: normal; orphans: 2; text-align: center; text-indent: 0px; text-transform: none; widows: 2; word-spacing: 0px; -webkit-text-stroke-width: 0px; white-space: nowrap; background-color: rgb(251, 251, 251); text-decoration-thickness: initial; text-decoration-style: initial; text-decoration-color: initial; display: inline !important; float: none;&quot;&gt;photon_energy03&lt;/span&gt;" style="text;whiteSpace=wrap;html=1;" vertex="1" parent="lafihpjmT2SEwCijQc9G-29">
          <mxGeometry x="369" y="35.5" width="121" height="36" as="geometry" />
        </mxCell>
        <mxCell id="lafihpjmT2SEwCijQc9G-51" value="&lt;span style=&quot;color: rgb(0, 0, 0); font-family: Helvetica; font-size: 14px; font-style: normal; font-variant-ligatures: normal; font-variant-caps: normal; font-weight: 400; letter-spacing: normal; orphans: 2; text-align: center; text-indent: 0px; text-transform: none; widows: 2; word-spacing: 0px; -webkit-text-stroke-width: 0px; white-space: nowrap; background-color: rgb(251, 251, 251); text-decoration-thickness: initial; text-decoration-style: initial; text-decoration-color: initial; display: inline !important; float: none;&quot;&gt;clen03&lt;/span&gt;" style="text;whiteSpace=wrap;html=1;" vertex="1" parent="lafihpjmT2SEwCijQc9G-29">
          <mxGeometry x="55" y="202" width="69" height="39" as="geometry" />
        </mxCell>
        <mxCell id="lafihpjmT2SEwCijQc9G-52" value="" style="endArrow=none;dashed=1;html=1;dashPattern=1 3;strokeWidth=2;rounded=0;exitX=-0.003;exitY=0.048;exitDx=0;exitDy=0;exitPerimeter=0;entryX=0;entryY=0;entryDx=0;entryDy=0;" edge="1" parent="lafihpjmT2SEwCijQc9G-29" source="lafihpjmT2SEwCijQc9G-32">
          <mxGeometry width="50" height="50" relative="1" as="geometry">
            <mxPoint x="286" y="189" as="sourcePoint" />
            <mxPoint x="1" as="targetPoint" />
          </mxGeometry>
        </mxCell>
      </root>
    </mxGraphModel>
  </diagram>
</mxfile>
